<?xml version="1.0" standalone="no"?>
<!DOCTYPE svg PUBLIC "-//W3C//DTD SVG 1.1//EN" "http://www.w3.org/Graphics/SVG/1.1/DTD/svg11.dtd" >
<svg>
<metadata>
Created by FontForge 20110222 at Thu Jun  5 16:56:48 2014
 By deploy user
Copyright (c) 1992, 1998 Adobe Systems Incorporated.  All Rights Reserved.Formata is either a registered trademark or trademark of Berthold Types Limited in the United States and/or other countries.
</metadata>
<defs>
<font id="Formata-BoldCondensed" horiz-adv-x="500" >
  <font-face 
    font-family="Formata BoldCondensed"
    font-weight="700"
    font-stretch="condensed"
    units-per-em="1000"
    panose-1="2 11 8 6 0 0 0 0 0 0"
    ascent="750"
    descent="-250"
    x-height="539"
    cap-height="709"
    bbox="-121 -250 1164 974"
    underline-thickness="50"
    underline-position="-50"
    unicode-range="U+0020-FB02"
  />
<missing-glyph horiz-adv-x="250" 
 />
    <glyph glyph-name=".notdef" horiz-adv-x="250" 
 />
    <glyph glyph-name=".null" horiz-adv-x="0" 
 />
    <glyph glyph-name="nonmarkingreturn" horiz-adv-x="333" 
 />
    <glyph glyph-name="space" unicode=" " horiz-adv-x="250" 
 />
    <glyph glyph-name="space" unicode="&#xa0;" horiz-adv-x="250" 
 />
    <glyph glyph-name="exclam" unicode="!" horiz-adv-x="271" 
d="M233 6l-6 -6q-88 0 -159 -3l-6 6q0 80 -2 159l5 6q88 0 160 3l6 -6q0 -78 2 -159zM221 240l-7 -9q-38 0 -132 -3l-7 7q-14 281 -29 461l6 6q106 5 188 11l7 -6q-24 -312 -26 -467z" />
    <glyph glyph-name="quotedbl" unicode="&#x22;" horiz-adv-x="396" 
d="M372 670l-53 -262h-32l-54 250q-2 16 -2 25q0 29 21.5 47.5t53.5 18.5q28 0 47.5 -17t19.5 -45q0 -3 -0.5 -9t-0.5 -8zM164 670l-53 -262h-31l-55 250q-2 16 -2 24q0 32 23 49.5t52 17.5q28 0 47.5 -17t19.5 -45q0 -3 -0.5 -9t-0.5 -8z" />
    <glyph glyph-name="numbersign" unicode="#" horiz-adv-x="583" 
d="M559 310v-124h-116l-26 -186h-126l27 186h-99l-26 -186h-124l25 186h-94v124h112l13 95h-100v124h117l25 176h124l-24 -176h99l24 176h125l-24 -176h92v-124h-109l-13 -95h98zM236 310h99l13 95h-98z" />
    <glyph glyph-name="dollar" unicode="$" horiz-adv-x="479" 
d="M178 -105l-6 6q3 59 3 87q-82 5 -136 34l-5 8q5 74 6 138l7 3q52 -47 122 -47q77 0 77 58q0 22 -12 34.5t-52 38.5l-42 27q-34 24 -54 42t-39 54t-19 80q0 95 60 149q42 38 109 49q0 25 -2 87l5 6h85l5 -6q-2 -36 -3 -84q74 -9 122 -34l4 -7q-1 -10 -2.5 -31t-2.5 -32
q0 -12 -1 -38t-2 -38l-8 -3q-49 50 -104 50q-30 0 -47.5 -14t-17.5 -36q0 -15 9 -26t33 -28q4 -3 19 -13t32.5 -21.5t20.5 -13.5q35 -23 55 -41t37.5 -52t17.5 -77q0 -89 -56 -148q-49 -50 -129 -63q0 -33 2 -91l-4 -6q-48 1 -87 -1z" />
    <glyph glyph-name="percent" unicode="%" horiz-adv-x="833" 
d="M330 427q0 -34 -1.5 -57t-9.5 -59t-23.5 -58t-45.5 -39t-73 -17q-31 0 -56 9.5t-41 23t-27 35.5t-16.5 40t-8.5 45t-3.5 41t-0.5 36q0 32 1 54t9.5 58.5t23.5 59t46 40t74 17.5q36 0 63 -11t43 -32t26 -41.5t14 -51t5 -49t1 -44.5zM203 423q0 69 -4 106q-5 34 -22 34
q-16 0 -22 -34q-4 -26 -4 -105q0 -100 9 -121q9 -13 17 -13q13 0 16 14q10 24 10 119zM810 221q0 -33 -1.5 -57t-10 -59.5t-23.5 -57.5t-45.5 -39t-73.5 -17q-31 0 -56 9.5t-41 23t-27 35.5t-16.5 40t-8.5 44.5t-3.5 41t-0.5 36.5q0 32 1 54t9.5 58.5t23.5 59t46 40t74 17.5
t73.5 -17.5t45.5 -40t23 -58.5t9.5 -58.5t1.5 -54.5zM683 217q0 71 -5 106q-5 34 -22 34t-22 -35q-4 -25 -4 -104q0 -100 10 -121q4 -13 16 -13q10 0 17 14q10 24 10 119zM487 369l-42 -109q-65 -162 -98 -255l-14 -5q-58 -2 -96 -3l-4 6l9 24q57 134 83 196q5 12 15 38
t15 38l36 86q62 161 97 259l7 6q49 -1 101 0l4 -6q-30 -72 -113 -275z" />
    <glyph glyph-name="ampersand" unicode="&#x26;" horiz-adv-x="604" 
d="M586 298l1 -10q0 -2 -15.5 -29.5t-20.5 -33.5q-13 -22 -53 -73q67 -96 103 -143l-5 -6q-106 -2 -177 -5l-9 6q-12 21 -23 36q-78 -51 -158 -51q-52 0 -92 17t-62.5 44t-33.5 58t-11 63q0 80 61 137q16 15 70 52q-52 69 -52 133q0 70 48 117.5t136 47.5q86 0 132.5 -41.5
t46.5 -102.5q0 -38 -18.5 -73t-35.5 -52t-51 -46q31 -47 55 -81q59 83 73 152l10 1q16 -24 81 -117zM312 153l-64 95q-15 -10 -22.5 -17t-13.5 -18t-6 -25q0 -22 14 -39.5t38 -17.5q23 0 54 22zM288 447l21 21t13 20t6 28q0 18 -10 30t-24 12q-13 0 -22.5 -11.5t-9.5 -30.5
q0 -21 26 -69z" />
    <glyph glyph-name="quotesingle" unicode="'" horiz-adv-x="208" 
d="M174 670l-53 -262h-32l-54 250q-2 16 -2 25q0 31 23 48.5t53 17.5q38 0 57 -29q10 -15 8 -50z" />
    <glyph glyph-name="parenleft" unicode="(" horiz-adv-x="292" 
d="M200 -188l-7 6q-37 62 -67 125q-83 181 -83 331q0 99 36 214q38 116 115 243l8 5q43 -1 76 0l5 -7q-34 -90 -63 -223q-28 -125 -28 -235q0 -107 26 -230q30 -127 65 -223l-5 -6q-37 1 -78 0z" />
    <glyph glyph-name="parenright" unicode=")" horiz-adv-x="292" 
d="M91 736l7 -6q36 -57 68 -125q83 -181 83 -331q0 -99 -36 -214q-37 -112 -116 -243l-8 -5q-43 1 -76 0l-5 7q40 105 63 223q28 125 28 235q0 107 -26 230q-32 131 -65 223l5 6q37 -1 78 0z" />
    <glyph glyph-name="asterisk" unicode="*" horiz-adv-x="417" 
d="M71 678l8 1q22 -22 43 -37q6 -4 26.5 -22t22.5 -19q-1 5 -5.5 35t-9 57t-6.5 36l4 6q52 -1 104 1l5 -6q-7 -40 -18 -130q23 19 48 44q31 31 41 40l8 -2q22 -41 52 -91l-2 -7q-11 -5 -56 -24t-63 -27q9 -3 60 -19.5t61 -19.5l2 -6q-18 -33 -48 -97l-7 -2q-59 49 -98 83
q8 -51 25 -130l-5 -6q-28 0 -104 -2l-6 6q9 65 15 131l-29.5 -29.5t-56.5 -54.5l-9 1q-19 39 -51 92l3 8q5 2 51.5 21.5t60.5 24.5q-39 15 -115 45l-2 8q28 44 51 91z" />
    <glyph glyph-name="plus" unicode="+" 
d="M467 356v-128h-154v-156h-127v156h-152v128h152v154h127v-154h154z" />
    <glyph glyph-name="comma" unicode="," horiz-adv-x="250" 
d="M228 173l4 -6q-33 -69 -56 -129q-5 -13 -14.5 -37t-17.5 -43.5t-16 -36.5l-4 -11l-8 -6q-72 -1 -117 -4l-4 6q15 48 34.5 128.5t25.5 126.5l6 6q81 1 167 6z" />
    <glyph glyph-name="hyphen" unicode="-" horiz-adv-x="333" 
d="M298 357l6 -6q-5 -113 -6 -136l-7 -5q-115 1 -256 -1l-6 6q4 61 6 135l6 6h155q75 0 102 1z" />
    <glyph glyph-name="hyphen" unicode="&#xad;" horiz-adv-x="333" 
d="M298 357l6 -6q-5 -113 -6 -136l-7 -5q-115 1 -256 -1l-6 6q4 61 6 135l6 6h155q75 0 102 1z" />
    <glyph glyph-name="period" unicode="." horiz-adv-x="250" 
d="M211 6l-6 -6q-88 0 -159 -3l-6 6q0 80 -2 159l5 6q88 0 160 3l6 -6q0 -78 2 -159z" />
    <glyph glyph-name="slash" unicode="/" horiz-adv-x="354" 
d="M235 351l-56 -179q-83 -261 -107 -351l-7 -6q-58 -1 -110 -3l-5 7q14 40 48 144q6 17 16.5 50.5t16.5 50.5q7 21 24 72.5t26 79.5l57 179q52 159 100 334l7 6q64 0 107 1l5 -7q-37 -111 -122 -378z" />
    <glyph glyph-name="zero" unicode="0" 
d="M250 659q115 0 171 -80q53 -76 53 -263q0 -40 -2.5 -71.5t-9.5 -72.5t-22.5 -71t-39 -57t-62.5 -41.5t-89 -14.5q-112 0 -169 79q-30 42 -42 104.5t-12 161.5q0 37 2 65.5t8.5 70t21.5 72t38.5 59t63 44t90.5 15.5zM291 318q0 110 -7 156q-8 52 -35 52q-25 0 -34 -52
q-6 -40 -6 -154q0 -148 14 -178q11 -21 27 -21q19 0 26 21q15 34 15 176z" />
    <glyph glyph-name="one" unicode="1" 
d="M359 6l-8 -6q-96 1 -188 -3l-7 6q9 281 6 493q-42 -2 -59 -3l-7 6q4 109 4 120l5 6q76 9 126 16q78 14 118 18l6 -6v-21q0 -23 -1.5 -162t-1.5 -165q0 -178 7 -299z" />
    <glyph glyph-name="two" unicode="2" 
d="M47 604l5 8q102 47 182 47q90 0 154 -55t64 -164q0 -42 -12.5 -77.5t-28 -58.5t-54.5 -76q-2 -2 -52 -70q100 1 163 6l7 -6q-6 -81 -7 -152l-8 -6q-54 1 -144 0h-101q-65 0 -191 -3l-8 17q65 83 175 249q43 63 56.5 91.5t13.5 59.5q0 37 -21.5 62t-61.5 25
q-54 0 -125 -52l-8 5q2 71 2 150z" />
    <glyph glyph-name="three" unicode="3" 
d="M362 456l-29 -61q54 -9 86 -54.5t32 -117.5q0 -102 -64 -168.5t-182 -66.5q-82 0 -161 31l-6 10q2 40 2 62q0 13 1 41t1 41l7 5q56 -48 111 -48q36 0 64 21.5t28 76.5q0 11 -2.5 22t-9 25t-22.5 23t-39 9t-54 -12l-6 7l53 106q24 49 42 88q-108 -3 -170 -5l-7 6
q4 63 7 144l7 6q86 -2 138 -2h102q31 0 91 2q3 0 36 1.5t34 1.5l6 -7q-27 -48 -96 -187z" />
    <glyph glyph-name="four" unicode="4" 
d="M472 124l-7 -6q-31 1 -64 1q1 -16 5 -113l-8 -6q-8 0 -25 0.5t-26 0.5q-24 0 -116 -4l-7 6q2 43 5 115q-89 1 -206 1l-8 5v104l1 8q25 63 88 230q44 113 65 176l7 5q128 0 220 3l8 -7q-3 -87 -3 -230v-155q40 0 71 2l7 -6q-4 -50 -7 -130zM147 258h86l4 283z" />
    <glyph glyph-name="five" unicode="5" 
d="M244 500l-5 -66q13 2 25 2q96 0 150 -58t54 -146q0 -119 -84 -188q-65 -55 -169 -55q-84 0 -162 30l-8 8q4 63 4 144l10 6q52 -50 114 -50q93 0 93 89q0 43 -28 64t-72 21q-48 0 -97 -31l-9 5l10 124q13 169 14 242l8 6h125h71q4 0 72 2q20 0 47 1h27l7 -6
q-9 -79 -13 -143l-8 -6q-8 1 -25 1q-57 3 -114 4h-37z" />
    <glyph glyph-name="six" unicode="6" 
d="M432 489l-9 -6q-43 37 -99 37q-42 0 -74 -26t-36 -82q42 28 97 28q77 0 125 -58.5t48 -155.5q0 -116 -65 -180q-60 -58 -163 -58q-104 0 -165 69q-68 78 -68 234q0 137 41 224q67 145 245 145q68 0 123 -22l8 -9q-1 -19 -4 -70t-4 -70zM210 262q-1 -24 -1 -46
q0 -30 4 -46q5 -23 17.5 -37t28.5 -14q11 0 21 7q26 19 26 77q0 84 -48 84q-23 0 -48 -25z" />
    <glyph glyph-name="seven" unicode="7" 
d="M219 345l55 154h-43q-111 -1 -192 -4l-6 6q9 92 11 141l7 5h221q114 2 145 2q38 1 63 1l6 -6l-9 -30q-5 -17 -47 -165l-54 -182q-45 -160 -67 -261l-7 -6q-99 2 -196 -3l-5 6q18 48 67 195z" />
    <glyph glyph-name="eight" unicode="8" 
d="M394 351q89 -41 89 -154q0 -95 -60 -151.5t-176 -56.5q-108 0 -168 53q-61 55 -61 152q0 115 86 154q-75 35 -75 130q0 80 57 130q58 51 165 51q103 0 160 -50q56 -50 56 -130q0 -90 -73 -128zM294 197q0 77 -44 77q-43 0 -43 -75q0 -73 45 -73q42 0 42 71zM290 470
q0 68 -42 68t-42 -68q0 -65 43 -65q41 0 41 65z" />
    <glyph glyph-name="nine" unicode="9" 
d="M68 158l9 6q40 -37 98 -37q40 0 68 20q36 27 43 88q-43 -28 -96 -28q-75 0 -124.5 56.5t-49.5 156.5q0 118 65 181q61 58 163 58q103 0 165 -69q68 -76 68 -234q0 -135 -41 -223q-21 -45 -50 -75.5t-62.5 -45t-64.5 -20t-68 -5.5q-65 0 -123 22l-8 8q1 19 3.5 66t4.5 75z
M290 385q3 92 -14 121q-13 22 -35 22q-13 0 -22 -7q-26 -19 -26 -74q0 -87 49 -87q23 0 48 25z" />
    <glyph glyph-name="colon" unicode=":" horiz-adv-x="271" 
d="M232 6l-6 -6q-88 0 -159 -3l-6 6q0 80 -2 159l5 6q88 0 160 3l6 -6q0 -78 2 -159zM232 374l-6 -6q-88 0 -159 -3l-6 6q0 80 -2 159l5 6q88 0 160 3l6 -6q0 -78 2 -159z" />
    <glyph glyph-name="semicolon" unicode=";" horiz-adv-x="271" 
d="M249 173l4 -5q-32 -68 -57 -130q-5 -12 -21 -53.5t-26 -63.5l-5 -11l-8 -5q-51 -2 -117 -5l-4 6q45 140 61 255l6 6q75 1 167 6zM249 374l-6 -6q-88 0 -159 -3l-6 6q0 80 -2 159l5 6q88 0 160 3l6 -6q0 -78 2 -159z" />
    <glyph glyph-name="less" unicode="&#x3c;" 
d="M500 207v-138l-499 220v124l499 225v-139l-328 -148z" />
    <glyph glyph-name="equal" unicode="=" 
d="M500 251v-128h-500v128h500zM500 458v-127h-500v127h500z" />
    <glyph glyph-name="greater" unicode="&#x3e;" 
d="M500 289l-500 -220v138l329 144l-329 148v138l500 -224v-124z" />
    <glyph glyph-name="question" unicode="?" horiz-adv-x="396" 
d="M251 6l-6 -6q-88 0 -159 -3l-6 6q0 80 -2 159l5 6q88 0 160 3l6 -6q0 -78 2 -159zM22 680l8 9q64 29 145 29q86 0 134 -37q65 -47 65 -144q0 -38 -12.5 -73t-26 -56t-44.5 -63q-44 -67 -46 -106l-9 -6q-58 0 -133 -5l-8 6q1 50 47 130l17 29q35 58 35 102q0 29 -9.5 49.5
t-24 29t-26.5 11.5t-24 3q-44 0 -82 -35l-9 4q1 35 2 76t1 47z" />
    <glyph glyph-name="at" unicode="@" horiz-adv-x="896" 
d="M779 101l47 -61q-35 -32 -61.5 -53t-74.5 -50.5t-107.5 -45t-126.5 -15.5q-47 0 -95.5 9.5t-102 35.5t-94.5 65t-68 104t-27 147q0 195 133 335t325 140q77 0 136.5 -25.5t94 -67.5t52 -92t17.5 -104q0 -55 -18 -125t-58 -129q-43 -60 -86.5 -81.5t-74.5 -21.5
q-52 0 -77 34q-8 11 -15 35q-16 -18 -27 -29t-39.5 -25t-59.5 -14q-53 0 -95.5 40.5t-42.5 129.5q0 109 62.5 198t155.5 89q62 0 104 -60l10 39h90l-33 -158q-19 -93 -22 -116q-6 -33 -6 -51q0 -11 5.5 -19t13.5 -8q37 0 83 82.5t46 186.5q0 56 -19.5 98.5t-52.5 66.5
t-71.5 36t-81.5 12q-93 0 -177.5 -52t-137.5 -144.5t-53 -200.5q0 -76 28.5 -133t75 -88t97 -45.5t103.5 -14.5q102 0 197 50q58 31 128 96zM523 348q0 47 -22.5 67t-44.5 20q-50 0 -84.5 -62.5t-34.5 -132.5q0 -40 18.5 -62t45.5 -22q46 0 84 61t38 131z" />
    <glyph glyph-name="A" unicode="A" horiz-adv-x="625" 
d="M423 -2l-6 5q-12 70 -32 171h-160q-21 -84 -36 -168l-6 -6q-105 0 -178 -2l-5 5q20 64 55 195l46 167q19 65 43 152q2 6 23.5 86.5t26.5 98.5l6 5q141 0 241 3l6 -6q6 -26 10 -39q50 -196 75 -291l45 -176q5 -19 17.5 -70.5t17.5 -70.5q6 -21 13 -49l-5 -6q-20 0 -197 -4
zM275 419l-26 -105q36 -1 106 1l-22 112q-16 83 -25 147q-13 -69 -33 -155z" />
    <glyph glyph-name="B" unicode="B" horiz-adv-x="583" 
d="M36 701l4 6q76 0 166 2q59 1 82 1q29 0 45 -0.5t45.5 -3.5t46.5 -9t39.5 -18t34.5 -29.5t21 -44.5t9 -62q0 -107 -93 -150q-4 -1 -11 -4t-11 -5q16 -2 22 -4q27 -6 54 -23q65 -44 65 -142q0 -60 -24 -104t-58 -68q-26 -19 -64.5 -29t-60.5 -11.5t-59 -2.5h-119
q-87 0 -127 -2l-6 6q5 203 5 364q0 200 -6 333zM236 126q13 0 27.5 -0.5t28.5 4.5t25.5 13.5t18.5 27.5t7 46q0 28 -10 45.5t-25.5 22.5t-34.5 7t-37 0v-166zM238 427q22 -1 34 0.5t30 8t27 25.5t9 50q0 26 -7.5 42.5t-21 22.5t-22 7.5t-20.5 1.5q-17 0 -29 -1
q-1 -80 0 -157z" />
    <glyph glyph-name="C" unicode="C" horiz-adv-x="542" 
d="M509 180l6 -2q-5 -86 -7 -162l-4 -5q-51 -24 -145 -24q-158 0 -241 87q-89 93 -89 269q0 195 100 295q82 82 229 82q98 0 155 -28l4 -6q-4 -43 -6 -86q-2 -25 -4 -75l-6 -3q-50 41 -105 41q-76 0 -114 -59q-37 -55 -37 -153q0 -121 58 -174q38 -33 97 -33q60 0 109 36z
" />
    <glyph glyph-name="D" unicode="D" horiz-adv-x="625" 
d="M38 700l5 6h212q135 0 191 -24q150 -63 150 -318q0 -170 -66 -261q-33 -45 -82.5 -69t-85.5 -28.5t-90 -5.5q-16 -1 -112.5 -2t-114.5 -1l-5 6q2 150 2 236q0 308 -4 461zM244 150q43 -2 68.5 7t43.5 43q29 53 29 180q0 42 -7 80q-10 55 -36 77t-70 22q-19 0 -31 -1
q0 -272 3 -408z" />
    <glyph glyph-name="E" unicode="E" horiz-adv-x="479" 
d="M424 299l-6 -6q-42 1 -177 1v-144q142 0 214 6l6 -6q-6 -72 -8 -144l-6 -6h-222q-118 0 -181 -3l-5 6q4 150 4 318q0 260 -7 379l6 6q56 0 167 1q191 1 233 2l5 -6q-4 -45 -7 -134l-6 -6q-8 0 -56.5 0.5t-57.5 0.5q-17 0 -79 -1q-1 -68 0 -131q96 0 184 4l6 -6
q-2 -24 -3 -43.5t-2 -43.5t-2 -44z" />
    <glyph glyph-name="F" unicode="F" horiz-adv-x="437" 
d="M405 283l-6 -6q-49 1 -161 -1q0 -19 1 -54t2 -88.5t2 -88.5q0 -7 0.5 -19.5t0.5 -19.5l-6 -6q-87 1 -194 -3l-5 6q3 187 3 340q0 125 -7 358l6 6h251q71 0 131 3l6 -6q-5 -80 -6 -135l-6 -6q-54 2 -177 2q-2 -60 -2 -147q13 0 45 1t63.5 1.5t58.5 1.5l6 -6
q-5 -74 -6 -133z" />
    <glyph glyph-name="G" unicode="G" horiz-adv-x="604" 
d="M567 359l5 -6q-3 -90 -3 -131q0 -49 2 -195l-4 -6q-95 -34 -208 -34q-184 0 -267 121q-63 89 -63 234q0 178 89 281q86 97 244 97q107 0 183 -38l3 -6q-1 -13 -3.5 -40.5t-3.5 -42.5q-1 -12 -3 -36.5t-3 -36.5l-7 -4q-53 46 -125 46q-165 0 -165 -221q0 -193 106 -193
q19 0 33 6q2 48 2 72q0 55 -6 124l5 6q100 -1 189 3z" />
    <glyph glyph-name="H" unicode="H" horiz-adv-x="625" 
d="M381 -3l-6 6q0 25 1 38q2 102 2 154q0 7 -0.5 51.5t-0.5 53.5q-79 1 -130 -2q0 -195 2 -292l-5 -6q-112 0 -199 -3l-6 6q0 6 0.5 18t0.5 19q3 294 3 342q0 141 -5 318l5 6q91 -2 200 3l6 -6q0 -14 -0.5 -101.5t-0.5 -103.5v-48q56 -4 130 1q0 17 -2 123t-2 126l5 6
q79 0 201 3l5 -6q-3 -138 -3 -388q0 -207 3 -309l-6 -6q-116 0 -198 -3z" />
    <glyph glyph-name="I" unicode="I" horiz-adv-x="292" 
d="M254 5l-5 -5q-92 1 -204 -3l-5 5q3 216 3 432q0 148 -5 266l6 6q106 -1 203 3l6 -6q-5 -135 -5 -288q0 -246 6 -410z" />
    <glyph glyph-name="J" unicode="J" horiz-adv-x="333" 
d="M287 709l5 -6q-1 -29 -1 -91q0 -16 1 -115.5t1 -118.5q0 -17 0.5 -69.5t0.5 -67.5q0 -119 -25 -165q-44 -83 -174 -83q-29 1 -77 7l-5 6q0 10 0.5 32t0.5 32q0 18 -2 88l6 5q18 -9 27 -9q12 0 21 6q17 12 21 37t4 83q0 86 -5 276q-1 38 -1.5 68t-1 44.5t-0.5 31.5l6 6
q114 0 198 3z" />
    <glyph glyph-name="K" unicode="K" horiz-adv-x="604" 
d="M247 6l-6 -6q-102 1 -195 -3l-5 6q4 280 4 311q0 264 -7 386l5 6q113 0 196 3l5 -6q0 -4 -1 -83.5t-1 -90.5l-3 -129l112 215q22 43 40 85l7 6q116 1 187 3l3 -6q-41 -63 -80 -127l-99 -160l75 -159q11 -22 39.5 -81t39.5 -81q14 -28 44 -84l-3 -6q-164 -6 -218 -9l-7 6
q-2 4 -5.5 13t-5.5 13q-44 115 -66 167l-62 137q1 -234 7 -326z" />
    <glyph glyph-name="L" unicode="L" horiz-adv-x="458" 
d="M244 709l6 -6q-1 -13 -1 -40q-1 -30 -2 -190.5t-1 -179.5q0 -13 -0.5 -38t-0.5 -37q0 -37 1 -68q96 0 190 6l6 -6q-6 -72 -8 -144l-6 -6l-279 -1q-15 0 -101 -2l-6 6q1 83 1 204q0 20 -0.5 145.5t-0.5 149.5v85q0 73 -2 113l6 6q123 0 198 3z" />
    <glyph glyph-name="M" unicode="M" horiz-adv-x="812" 
d="M362 538l49 -211l43 214l15 69q2 7 9 45.5t8 44.5l6 6q92 0 252 3l6 -6q2 -59 7 -197l7 -152q7 -157 19 -348l-6 -6q-79 1 -191 -3l-5 6q-2 184 -6 303v203l-63 -286q-10 -47 -44 -217l-7 -6q-61 1 -140 -3l-6 6q-7 35 -26 115q-7 32 -21 94l-64 287l-4 -179
q-3 -210 -3 -314l-5 -6q-70 0 -157 -3l-6 6q2 45 7.5 155t7.5 149l8 220q0 23 2 65q1 35 3 108l6 6q135 0 256 3l7 -6q7 -35 36 -165z" />
    <glyph glyph-name="N" unicode="N" horiz-adv-x="646" 
d="M310 203l-113 184l6 -146q2 -83 9 -235l-7 -6q-82 0 -158 -3l-6 6q2 102 2 179q0 40 -1 171.5t-1 160.5q-1 62 -5 186l6 6q101 0 180 3l8 -5q33 -63 124 -208l96 -149l-4 169q0 1 -2.5 84t-3.5 100l6 6q32 0 57.5 0.5t51.5 1.5t43 1l6 -6q0 -30 -1 -216.5t-1 -221.5
q0 -91 3 -259l-6 -6q-88 0 -164 -3l-7 6q-52 92 -118 200z" />
    <glyph glyph-name="O" unicode="O" horiz-adv-x="646" 
d="M323 720q130 0 204 -77q90 -94 90 -295q0 -75 -13 -132q-16 -77 -58 -130q-78 -99 -225 -99q-143 0 -221 97q-71 91 -71 260q0 202 90 297q75 79 204 79zM409 350q0 105 -14 158q-21 68 -71 68q-24 0 -44 -18q-32 -30 -40 -123q-3 -36 -3 -86q0 -41 3 -80q9 -91 43 -120
q18 -15 40 -15t40 15q33 27 43 120q3 41 3 81z" />
    <glyph glyph-name="P" unicode="P" horiz-adv-x="542" 
d="M43 700l5 6q55 0 174 2q14 1 41 1t42.5 -0.5t46.5 -5t50.5 -12.5t45 -25t40 -40.5t25 -61t10.5 -84.5q0 -163 -111 -224q-37 -20 -75.5 -25t-96.5 -4q-1 -145 2 -221l-5 -6q-84 1 -194 -3l-5 6q7 329 7 564q0 88 -2 133zM241 371q34 0 48 6q41 20 41 108q0 85 -66 85
q-9 0 -23 -1v-198z" />
    <glyph glyph-name="Q" unicode="Q" horiz-adv-x="646" 
d="M543 -149l-9 -2q-138 89 -249 140q-2 0 -6 0.5t-6 0.5q-244 39 -244 357q0 81 16 146.5t49.5 117.5t91 80.5t135.5 28.5q64 0 115 -19q175 -67 175 -337q0 -93 -16 -155q-34 -134 -133 -169q-3 -1 -8.5 -2.5t-8.5 -2.5l10 -4q94 -30 192 -55l3 -10q-65 -68 -107 -115z
M407 350q0 101 -14 155q-19 68 -71 68q-69 0 -82 -141q-3 -45 -3 -83q0 -39 3 -77q13 -135 83 -135q84 0 84 213z" />
    <glyph glyph-name="R" unicode="R" horiz-adv-x="562" 
d="M35 700l4 6q17 0 120 1t123 1q111 0 158 -25q86 -45 86 -187q0 -43 -9 -76.5t-26 -55.5t-28 -32t-28 -22l40 -100q54 -131 88 -198l-4 -7q-105 -3 -205 -9l-7 6q-8 22 -11 34q-8 25 -24 77t-24 77l-23 73q-11 -1 -29 -1q0 -166 6 -256l-5 -6q-101 0 -194 -3l-6 6
q5 245 5 344q0 231 -7 353zM235 396q21 -2 40 3q51 17 51 91q0 31 -10 51q-13 28 -48 28q-22 0 -30 -2q0 -30 -3 -171z" />
    <glyph glyph-name="S" unicode="S" horiz-adv-x="479" 
d="M418 537l-8 -3q-18 14 -29.5 22t-34.5 16t-49 8q-30 0 -50 -15.5t-20 -41.5q0 -24 17.5 -43.5t56.5 -45.5q45 -31 64.5 -46.5t44 -42t33.5 -56.5t9 -70q0 -95 -56 -158q-68 -75 -204 -75q-90 0 -153 31l-6 9q4 52 5 78q0 11 1 33t1 33l7 3q53 -45 123 -45q33 0 52.5 15
t23.5 28.5t4 25.5q0 24 -15.5 41t-51.5 43l-41 28q-25 18 -38.5 30t-34 36t-30 56.5t-9.5 73.5q0 99 59 158q59 58 176 58q87 0 157 -33l4 -7q-4 -50 -5 -75z" />
    <glyph glyph-name="T" unicode="T" 
d="M353 5l-6 -5q-109 0 -198 -3l-5 5q6 154 6 559q-25 -1 -76 -1q-11 0 -31.5 -0.5t-30.5 -1.5l-5 6q4 71 5 136l6 6h247q18 0 55.5 0.5t56.5 0.5q18 0 58 0.5t55 1.5l5 -6q-6 -71 -8 -137l-6 -6q-22 1 -132 3q0 -16 -0.5 -68t-0.5 -92q0 -273 5 -398z" />
    <glyph glyph-name="U" unicode="U" horiz-adv-x="604" 
d="M559 709l6 -6q-1 -52 -4 -349l-1 -49q-1 -105 -7.5 -148t-32.5 -81q-62 -89 -218 -89q-202 0 -247 145q-14 44 -14 179v42q-1 69 -1 176q0 83 -3 171l5 6q108 0 201 3l5 -6q-3 -131 -3 -393q0 -74 4 -105t19 -50q18 -23 50 -23q20 0 34 9t21 21t10.5 35t4 38.5t0.5 43.5
q2 106 2 324q0 50 -1 97l6 6q69 0 164 3z" />
    <glyph glyph-name="V" unicode="V" horiz-adv-x="583" 
d="M399 6l-6 -6q-86 1 -206 -3l-6 6q-1 5 -3 14.5t-3 14.5q-5 27 -41 164l-54 202q-20 74 -30 112q-4 16 -17 67.5t-21 79.5q-2 7 -6 20.5t-6 20.5l5 6q103 2 201 8l6 -6q15 -80 64 -328l33 -166l34 171q45 213 61 317l6 6q49 0 169 3l4 -6q-30 -107 -53 -193l-39 -142
l-30 -119q-11 -38 -31 -116q-6 -27 -31 -127z" />
    <glyph glyph-name="W" unicode="W" horiz-adv-x="917" 
d="M475 313l-23 138l-17 -95q-10 -58 -29.5 -175t-29.5 -175l-7 -6q-28 1 -84 1q-60 0 -137 -4l-6 6q-1 7 -3.5 19t-3.5 19q-5 23 -30 153l-32 163q-5 23 -14.5 68.5t-14.5 68.5q-34 158 -44 204l5 6q112 3 194 8l5 -6q12 -97 32 -219q12 -76 34 -230l10 -70l12 67
q40 245 71 446l6 6q77 0 207 3l5 -6q28 -193 66 -432l12 -81q18 128 47 287q24 135 36 223l6 6q107 1 165 3l4 -6q-8 -36 -13 -54q-27 -121 -67 -292l-37 -167q-6 -25 -21 -92t-21 -92l-6 -6q-29 1 -86 1q-60 0 -140 -4l-6 6q-2 11 -7 49.5t-11 81.5t-7 52q-6 43 -20 127z
" />
    <glyph glyph-name="X" unicode="X" horiz-adv-x="562" 
d="M463 528l-76 -156l84 -171q63 -129 96 -192l-4 -7q-96 -2 -209 -8l-7 6q-25 61 -49 117l-32 78l-25 -66q-27 -72 -48 -123l-7 -6q-76 1 -181 -3l-4 6q49 89 99 187l84 167l-78 150q-11 22 -47.5 91.5t-51.5 99.5l4 6q109 1 213 8l7 -6q28 -76 44 -113l29 -70l27 67
q10 28 16 42q20 53 26 68l7 6q95 0 174 3l3 -6q-34 -57 -94 -175z" />
    <glyph glyph-name="Y" unicode="Y" horiz-adv-x="583" 
d="M461 439l-69 -164v-109q0 -102 3 -160l-5 -6q-93 1 -202 -3l-5 6q6 88 6 266l-77 172l-36 84q-51 122 -75 173l3 6q99 1 201 8l7 -6q2 -5 5.5 -15t5.5 -15q2 -4 12 -32.5t19 -54.5t12 -34l44 -112l35 89q38 99 62 168l6 6q61 0 167 3l4 -6q-28 -54 -123 -264z" />
    <glyph glyph-name="Z" unicode="Z" 
d="M372 403l-103 -256q89 0 213 7l4 -6q-6 -78 -8 -142l-6 -6h-328q-48 0 -137 -3l-4 6q55 129 100 241l65 157q41 99 62 159q-66 0 -198 -4l-5 5q6 103 8 139l5 6h168h100q97 0 182 3l3 -6q-6 -17 -20 -51q-17 -42 -101 -249z" />
    <glyph glyph-name="bracketleft" unicode="[" horiz-adv-x="313" 
d="M225 347v-113q2 -90 2 -136q3 -172 3 -181q43 0 76 1l6 -6q-1 -13 -1.5 -44.5t-0.5 -46.5l-6 -6q-123 1 -232 -3l-6 6v27q1 51 1 155q0 125 -1 233v113q-1 96 -8 381l6 6q100 0 241 3l6 -6q-2 -46 -1 -95l-6 -6q-39 0 -78 -2q-3 -96 -1 -280z" />
    <glyph glyph-name="backslash" unicode="\" horiz-adv-x="354" 
d="M404 -181l-5 -7q-52 2 -110 3l-7 6q-23 89 -106 351l-57 179q-80 252 -122 378l5 7q43 -1 107 -1l7 -6q53 -190 101 -334l56 -179q39 -118 50 -152q22 -68 33 -101q34 -104 48 -144z" />
    <glyph glyph-name="bracketright" unicode="]" horiz-adv-x="313" 
d="M87 201v113q-2 90 -2 136q-3 172 -3 181q-44 0 -76 -1l-6 6q1 13 1.5 44.5t0.5 46.5l6 6q123 -1 232 3l6 -6v-27q-1 -51 -1 -155q0 -125 1 -233v-113q1 -96 8 -381l-6 -6q-100 0 -241 -3l-6 6q2 46 1 95l6 6q39 0 78 2q1 35 1 280z" />
    <glyph glyph-name="asciicircum" unicode="^" horiz-adv-x="729" 
d="M421 706l194 -395h-138l-110 231l-116 -231h-137l203 395h104z" />
    <glyph glyph-name="underscore" unicode="_" 
d="M-10 -75h520v-50h-520v50z" />
    <glyph glyph-name="grave" unicode="`" horiz-adv-x="250" 
d="M19 761l4 6q81 0 145 3l6 -6q7 -30 26 -89q1 -3 8 -21.5t13.5 -36t8.5 -23.5l-4 -6q-64 0 -107 -2l-6 6q-41 80 -94 169z" />
    <glyph glyph-name="a" unicode="a" horiz-adv-x="479" 
d="M264 3v45q-48 -55 -122 -55q-57 0 -95 44.5t-38 118.5q0 87 57 136t194 72q1 31 -10.5 44.5t-56.5 13.5q-69 0 -131 -41l-8 4q3 49 6 119l6 7q82 36 185 36q125 0 169 -72q17 -28 20 -61t2 -117l-1 -64q0 -132 8 -227l-7 -6q-76 1 -171 -3zM261 149v117q-80 -6 -80 -81
q0 -24 11 -40t32 -16q20 0 37 20z" />
    <glyph glyph-name="b" unicode="b" horiz-adv-x="521" 
d="M221 765l5 -4q-3 -90 -3 -150q0 -93 -1 -112q50 47 110 47q76 0 123 -69q43 -64 43 -173q0 -135 -56 -208q-68 -91 -208 -95h-107q-22 0 -88 -2l-5 6q4 154 4 333q0 121 -1 181q-1 116 -7 205l5 6q108 18 186 35zM223 394q-1 -175 0 -269q29 -2 46 12q37 33 37 153
q0 61 -12 89q-14 31 -39 31q-16 0 -32 -16z" />
    <glyph glyph-name="c" unicode="c" horiz-adv-x="396" 
d="M371 141l6 -3q-4 -56 -5 -123l-5 -6q-54 -19 -115 -19q-45 0 -83.5 13.5t-72.5 42t-53.5 81t-19.5 123.5q0 297 245 297q58 0 105 -18l4 -7q-1 -10 -2 -30.5t-2 -30.5l-3 -69l-6 -3q-29 24 -59 24q-36 0 -57 -29q-28 -36 -28 -122q0 -135 95 -135q32 0 56 14z" />
    <glyph glyph-name="d" unicode="d" horiz-adv-x="521" 
d="M488 6l-6 -6q-89 1 -175 -3l-6 6q2 26 2 54q-49 -66 -122 -66q-77 0 -119 70q-39 63 -39 176q0 136 51 212q60 87 185 87q7 0 22 -0.5t22 -0.5q0 126 -5 189l5 6q74 13 181 35l6 -6q-5 -98 -7 -406q0 -16 -0.5 -48.5t-0.5 -48.5q0 -116 6 -250zM265 124q15 0 33 22
q2 114 1 260q-12 2 -15 2q-22 0 -36.5 -18.5t-18.5 -34.5t-6 -31q-6 -34 -6 -84q0 -58 13 -87q10 -29 35 -29z" />
    <glyph glyph-name="e" unicode="e" horiz-adv-x="479" 
d="M448 222h-243q1 -48 32 -74.5t83 -26.5q65 0 113 35l7 -4q-4 -62 -6 -126l-6 -7q-57 -31 -150 -31q-64 0 -111 17q-144 53 -144 260q0 67 11 111q19 79 73.5 125.5t141.5 46.5q52 0 92 -17q36 -16 60.5 -42t36 -60t15.5 -64.5t4 -68.5q0 -2 -2 -68zM202 333h80
q0 19 -0.5 30.5t-4 28.5t-12 25.5t-21.5 8.5q-42 0 -42 -93z" />
    <glyph glyph-name="f" unicode="f" horiz-adv-x="313" 
d="M305 409l-6 -6q-27 1 -55 1q0 -254 8 -398l-7 -5q-110 0 -187 -3l-6 5q5 114 5 403q-9 0 -21 -0.5t-24 -1.5l-6 6q1 23 2 39t2 37t2 43l6 6l39 -3v12q0 32 0.5 48t4 43.5t10 42.5t19.5 34.5t32 29t48 16.5t67 7q36 0 84 -8l4 -6q-5 -64 -7 -128l-7 -5q-12 7 -23 7
q-46 0 -46 -71v-23q23 0 62 3l6 -6q-3 -55 -6 -119z" />
    <glyph glyph-name="g" unicode="g" horiz-adv-x="479" 
d="M466 426l-6 -6q-14 2 -28 3t-27 3q34 -36 34 -91q0 -59 -46 -107.5t-143 -48.5q-17 0 -35 3l-6 -10t-5 -8v-6l30 -11q121 -46 141 -57q85 -45 85 -129q0 -38 -13 -68q-16 -37 -49 -62q-64 -52 -187 -52q-96 0 -151 37.5t-55 95.5q0 30 14 55q23 41 80 58q-28 16 -51 33
l-1 11q27 54 33 65q9 17 39 65q-34 16 -53 35q-45 43 -45 116q0 65 29 106t70 60q30 13 65.5 16t123.5 3h156l6 -6q-4 -53 -5 -103zM195 -12q-40 -34 -40 -63q0 -21 15.5 -34t39.5 -13q27 0 42 12t15 32q0 21 -13.5 32t-58.5 34zM264 356q0 85 -35 85q-34 0 -34 -84
q0 -83 35 -83q34 0 34 82z" />
    <glyph glyph-name="h" unicode="h" horiz-adv-x="521" 
d="M42 -3l-5 6q0 7 0.5 20t0.5 20q2 166 2 249q0 276 -13 432l4 6q85 15 188 35l6 -6q-2 -116 -2 -134q0 -10 0.5 -71.5t0.5 -73.5q66 66 138 66q56 0 87 -39q22 -29 27 -71t5 -165v-46q3 -173 7 -219l-6 -6q-12 0 -36 0.5t-35 0.5q-51 0 -111 -4l-5 6q0 263 -1 291
q-1 57 -6 79.5t-26 22.5q-18 0 -35 -21q0 -246 6 -369l-5 -6q-95 1 -186 -3z" />
    <glyph glyph-name="i" unicode="i" horiz-adv-x="271" 
d="M239 6l-5 -6q-101 1 -193 -3l-6 6q5 180 5 236q0 162 -11 273l5 6q106 15 192 34l5 -6q-2 -142 -2 -213q0 -191 10 -327zM218 608l-5 -6q-89 -11 -166 -25l-6 6q0 78 -3 141l5 6q89 9 170 23l6 -6q-1 -64 -1 -139z" />
    <glyph glyph-name="j" unicode="j" horiz-adv-x="271" 
d="M226 552l6 -6q-3 -50 -3 -105q0 -42 1 -151.5t1 -151.5v-43q0 -4 0.5 -28.5t0.5 -36.5q0 -29 -3 -51t-12.5 -54t-34 -60t-62.5 -48q-51 -28 -123 -35l-6 6l-10 124l5 7q10 0 28 12t22 33q7 26 7 107q0 57 -3 195q-3 168 -12 246l6 6q95 12 192 34zM211 753l8 -6
q-2 -63 -1 -144l-6 -6q-79 -9 -165 -26l-7 6q1 58 -3 147l6 6q71 8 168 23z" />
    <glyph glyph-name="k" unicode="k" horiz-adv-x="521" 
d="M233 6l-6 -6q-80 1 -185 -3l-6 6q4 116 4 271q0 297 -11 450l4 6q60 10 190 35l6 -6q-5 -279 -3 -451l41 90q35 81 53 132l6 6q89 -1 164 3l5 -6q-20 -38 -62 -116l-42 -81l57 -150q35 -89 72 -177l-4 -6q-70 -2 -191 -9l-6 6q-9 33 -48 149l-45 129q0 -180 7 -272z" />
    <glyph glyph-name="l" unicode="l" horiz-adv-x="271" 
d="M238 6l-5 -6q-104 1 -191 -3l-5 6q5 135 5 297q0 303 -9 424l5 6q71 12 188 35l6 -6q-1 -61 -1 -161q0 -417 7 -592z" />
    <glyph glyph-name="m" unicode="m" horiz-adv-x="771" 
d="M27 512l3 6q99 12 191 34l7 -6q-2 -33 -2 -70q38 35 68.5 52.5t67.5 17.5q65 0 95 -63q66 63 142 63q69 0 102 -45q14 -18 21 -46.5t8 -49.5t2 -68v-41q0 -123 7 -290l-6 -6q-96 1 -184 -3l-6 6q2 168 2 225q0 118 -3 137q-7 34 -32 34q-11 0 -30 -15q0 -87 1 -127v-52
q1 -85 6 -199l-7 -6q-91 0 -182 -3l-6 6v62q1 42 1 126q0 116 -3 157q-3 51 -30 51q-16 0 -33 -17q0 -12 0.5 -82t0.5 -84q0 -50 5 -210l-6 -6q-100 0 -181 -3l-6 6q1 69 1 202q0 168 -14 307z" />
    <glyph glyph-name="n" unicode="n" horiz-adv-x="521" 
d="M43 -3l-7 6q5 118 5 214q0 156 -12 295l5 6q106 16 188 34l7 -6q-2 -30 -2 -65q34 32 64 48.5t69 16.5q37 0 62 -15q52 -30 58 -112q2 -27 2 -138v-53q0 -115 8 -222l-7 -6q-97 1 -182 -3l-5 6v112q0 173 -3 235q-4 46 -33 46q-18 0 -33 -19v-19q0 -242 7 -352l-6 -6
q-98 1 -185 -3z" />
    <glyph glyph-name="o" unicode="o" horiz-adv-x="521" 
d="M266 547q153 0 206 -129q25 -61 25 -152q0 -139 -60 -208q-62 -70 -177 -70q-48 0 -86 12t-62.5 29t-42 44.5t-26 50.5t-13 54.5t-5.5 49.5t-1 43q0 140 64 209q62 67 178 67zM302 261q0 85 -8 125q-8 42 -34 42q-16 0 -27 -18q-14 -29 -14 -138q0 -81 6 -118
q7 -45 36 -45q17 0 28 18q13 25 13 134z" />
    <glyph glyph-name="p" unicode="p" horiz-adv-x="521" 
d="M215 551l7 -5q0 -9 -0.5 -26t-1.5 -26q59 52 116 52q78 0 123 -73q39 -66 39 -178q0 -225 -159 -282q-37 -13 -113 -15q0 -44 5 -204l-6 -6q-46 2 -70 2q-43 0 -113 -5l-6 6q4 100 4 229q0 321 -16 492l5 6q98 14 186 33zM228 391q0 -136 2 -267q44 0 62 44q14 38 14 109
q0 130 -47 130q-13 0 -31 -16z" />
    <glyph glyph-name="q" unicode="q" horiz-adv-x="521" 
d="M305 -214l-7 5q1 17 2 117t1 119q-50 -36 -113 -36q-32 0 -56 10q-80 32 -102 152q-7 36 -7 80q0 80 18 137q51 162 229 166h66q61 0 145 3l6 -6q-4 -106 -4 -212q0 -150 4 -336q2 -99 7 -191l-5 -6q-82 2 -184 -2zM296 131q0 188 -1 274q-7 1 -14 1q-44 0 -57 -74
q-6 -40 -6 -81q0 -132 51 -132q13 0 27 12z" />
    <glyph glyph-name="r" unicode="r" horiz-adv-x="396" 
d="M236 6l-7 -6q-80 1 -190 -3l-6 6q5 143 5 247q0 150 -11 262l7 6q99 13 187 33l6 -5v-134q21 75 48.5 106t81.5 31q14 0 29 -3l6 -7q-16 -111 -24 -202l-8 -4q-28 28 -56 28q-30 0 -50 -23q-22 -26 -22 -108q0 -44 4 -224z" />
    <glyph glyph-name="s" unicode="s" horiz-adv-x="396" 
d="M28 13l-5 9q1 12 1 35t1 34v52l9 4q49 -41 97 -41q15 0 28 4q30 10 30 36q0 11 -7 21t-14.5 15.5t-23.5 15.5q-33 21 -49 33t-36.5 33.5t-29 48t-8.5 60.5q0 90 59 135q50 40 149 40q63 0 121 -18l5 -7q-2 -42 -2 -63v-60l-8 -2q-42 36 -87 36q-27 0 -41 -11.5t-14 -27.5
t12 -28t54 -38q26 -17 39 -27t31.5 -30t27 -45.5t8.5 -58.5q0 -36 -11 -65q-14 -38 -44 -65q-53 -50 -153 -50q-81 0 -139 25z" />
    <glyph glyph-name="t" unicode="t" horiz-adv-x="333" 
d="M309 409l-6 -6q-31 1 -62 0l-1 -77q-1 -32 -1 -104q0 -24 1 -36.5t4.5 -29.5t13 -25t25.5 -8t30 9l6 -5q-5 -80 -6 -118l-6 -7q-33 -11 -90 -11q-98 0 -135 49q-18 24 -22 55.5t-3 100.5v62q1 49 1 147q-22 0 -46 -2l-5 6q2 32 3 69.5t2 50.5l6 6q20 -1 41 0q1 10 1 26
q0 13 -0.5 48t-0.5 48l5 7q78 19 174 49l6 -6q-2 -38 -3 -176q40 1 67 3l6 -7q-4 -76 -5 -118z" />
    <glyph glyph-name="u" unicode="u" horiz-adv-x="521" 
d="M299 1l1 58q-67 -70 -139 -70q-33 0 -60 14q-30 15 -46 47q-12 24 -14.5 56t-2.5 143v42q1 133 -4 235l5 6q79 0 176 8l7 -6v-41q0 -33 -0.5 -99t-0.5 -98q0 -107 4 -126q4 -32 36 -32q18 0 37 17q2 176 -6 371l6 6q107 3 178 8l6 -6q-2 -140 -2 -189q0 -35 0.5 -112
t0.5 -101q1 -91 3 -127l-5 -5q-102 0 -176 -3z" />
    <glyph glyph-name="v" unicode="v" horiz-adv-x="479" 
d="M229 361l30 -155l29 149q24 117 31 175l7 6q65 -1 148 3l5 -6q-1 -6 -5 -18.5t-5 -18.5q-2 -6 -17.5 -58.5t-28.5 -98t-17 -60.5l-37 -127q-27 -97 -39 -146l-8 -6q-68 1 -166 -3l-7 6l-59 214q-20 73 -50 179q-25 85 -40 131l6 6q96 2 184 7l8 -6q11 -68 31 -173z" />
    <glyph glyph-name="w" unicode="w" horiz-adv-x="729" 
d="M391 179l-22 133l-27 -135q-5 -30 -14 -76q-6 -32 -18 -95l-8 -6q-93 1 -168 -3l-7 6q-1 5 -4 15t-4 15q-4 16 -14 60.5t-14 60.5l-31 129q-20 78 -29 117q-26 109 -31 126l6 6q80 3 165 9l7 -5q19 -116 30 -177l25 -137l26 142q17 91 28 166l7 6q50 -2 75 -2q36 0 109 5
l7 -6q14 -104 26 -168l22 -146l27 150q16 86 25 161l7 6q55 -1 132 3l5 -6q-15 -65 -33 -138q-12 -45 -34 -135l-30 -119q-1 -5 -32 -135l-7 -6q-82 1 -168 -3l-7 6q-11 77 -27 176z" />
    <glyph glyph-name="x" unicode="x" horiz-adv-x="479" 
d="M390 392l-59 -104l72 -139q51 -94 79 -141l-5 -6q-97 -1 -191 -6l-7 6q-3 6 -16 37t-15 35l-26 60l-22 -47q-2 -4 -37 -81l-7 -6q-80 1 -152 -3l-4 6q49 83 85 149l65 115l-60 112q-12 21 -42 74t-42 73l6 6q100 2 189 9q8 -6 10 -12q21 -52 33 -76l15 -34l17 34
q18 39 34 77l7 6q72 -1 148 3l5 -6q-61 -106 -80 -141z" />
    <glyph glyph-name="y" unicode="y" 
d="M113 -215l-5 6q23 53 68 183q-49 167 -122 396q-32 100 -54 157l4 6q97 1 196 7l7 -6q10 -54 34 -158l30 -138l36 144q17 69 33 148l6 6q72 -1 150 3l4 -6q-3 -9 -20 -63.5t-34.5 -111t-19.5 -62.5l-33 -102l-45 -153q-53 -190 -64 -247l-7 -6q-93 0 -164 -3z" />
    <glyph glyph-name="z" unicode="z" horiz-adv-x="417" 
d="M315 317l-75 -189q17 0 31.5 0.5t21.5 1t11 0.5q50 0 89 4l5 -6q-3 -72 -4 -122l-6 -6q-45 1 -144 1l-116 -2q-44 0 -128 -2l-5 6q2 4 56 127l113 275q-46 1 -139 -1l-5 6q3 89 4 120l6 6q81 -1 131 0h97q28 0 147 3l4 -6q-29 -62 -94 -216z" />
    <glyph glyph-name="braceleft" unicode="{" horiz-adv-x="354" 
d="M359 736v-95q-28 0 -41.5 -0.5t-29.5 -5.5t-24 -15q-10 -12 -12 -33t-2 -75q0 -119 -6 -145q-17 -78 -104 -90v-6q35 -5 58 -19t33 -36t13.5 -39.5t4.5 -41.5q1 -19 1 -69v-70q1 -59 21 -74t88 -15v-95q-92 0 -121.5 1.5t-53.5 9.5q-69 20 -87 86q-5 19 -6 99v74
q0 86 -20 113q-23 31 -82 31v96q59 0 82 31q20 27 20 113v74q1 80 6 99q18 66 87 86q24 8 53.5 9.5t121.5 1.5z" />
    <glyph glyph-name="bar" unicode="|" horiz-adv-x="229" 
d="M51 750h127v-1000h-127v1000z" />
    <glyph glyph-name="braceright" unicode="}" horiz-adv-x="354" 
d="M214 271v6q-35 5 -58 19t-33 36t-13.5 39.5t-4.5 41.5q-1 19 -1 69v70q-1 59 -21 74t-88 15v95q92 0 121.5 -1.5t53.5 -9.5q69 -20 87 -86q5 -19 6 -99v-74q0 -86 20 -113q22 -31 82 -31v-96q-59 0 -82 -31q-20 -27 -20 -113v-74q-1 -80 -6 -99q-18 -66 -87 -86
q-24 -8 -53.5 -9.5t-121.5 -1.5v95q28 0 41.5 0.5t29.5 5.5t24 15q10 12 12 33t2 75q0 119 6 145q17 78 104 90z" />
    <glyph glyph-name="asciitilde" unicode="~" horiz-adv-x="729" 
d="M574 387l52 -104q-74 -84 -156 -84q-38 0 -108 33l-27 14q-47 22 -73 22q-29 0 -47.5 -13.5t-56.5 -56.5l-55 103q13 17 22 28t29 29t46.5 27.5t57.5 9.5q41 0 105 -31l35 -16q51 -22 76 -22q49 0 100 61z" />
    <glyph glyph-name="exclamdown" unicode="&#xa1;" horiz-adv-x="271" 
d="M38 700l6 6q88 0 159 3l6 -6q0 -79 2 -159l-5 -6q-88 0 -160 -3l-6 6q0 78 -2 159zM50 466l7 9q74 1 132 3l7 -7q14 -281 29 -461l-6 -6q-68 -3 -188 -10l-7 6q24 310 26 466z" />
    <glyph glyph-name="cent" unicode="&#xa2;" horiz-adv-x="396" 
d="M371 142l6 -3q-4 -86 -5 -123l-5 -6q-25 -9 -57 -15q0 -15 0.5 -31t1 -27t0.5 -25l-5 -6q-43 1 -85 0l-6 6q2 32 2 81q-33 3 -63.5 16t-62 40.5t-50.5 79t-19 121.5q0 190 103 258q39 26 89 34q-1 64 -2 81l6 6h83l6 -6q-2 -63 -2 -79q38 -4 67 -16l4 -7q-2 -42 -4 -61
l-3 -69l-6 -3q-27 24 -59 24q-33 0 -58 -29q-27 -37 -27 -120q0 -135 95 -135q32 0 56 14z" />
    <glyph glyph-name="sterling" unicode="&#xa3;" horiz-adv-x="458" 
d="M381 283l-7 -6q-25 1 -113 1q-4 -117 -9 -160h90q57 1 81 4l6 -6q-6 -98 -6 -110l-5 -6q-34 1 -88 0h-147q-27 0 -133 -3l-7 9q38 98 46 273q-36 -1 -60 -3l-6 6q5 51 6 91l6 6q34 -1 52 -2l-3 84q0 93 52 145.5t158 52.5q77 0 133 -19l4 -7q-1 -24 -7 -117l-9 -5
q-29 18 -69 18q-63 0 -78 -54q-6 -17 -6 -96q4 0 27.5 0.5t28.5 0.5q21 0 63 2l5 -6q-2 -30 -5 -93z" />
    <glyph glyph-name="currency" unicode="&#xa4;" horiz-adv-x="667" 
d="M661 571l-81 -80q15 -28 22 -43.5t13.5 -44t6.5 -62.5q0 -36 -6.5 -66t-13.5 -44.5t-23 -43.5l81 -82l-96 -95l-80 82q-29 -15 -44 -21.5t-44.5 -13.5t-62.5 -7q-34 0 -63.5 7t-45 14.5t-42.5 22.5l-81 -82l-94 95l81 81q-43 73 -43 156q0 33 6.5 61t13.5 42.5t22 42.5
l-79 81l94 95l80 -80q29 15 44 22t44.5 14t63.5 7q35 0 64 -6.5t43.5 -13.5t43.5 -23l80 80zM497 340q0 76 -50.5 120.5t-113.5 44.5q-61 0 -112 -43.5t-51 -125.5q0 -70 50 -116t117 -46t113.5 48.5t46.5 117.5z" />
    <glyph glyph-name="yen" unicode="&#xa5;" horiz-adv-x="583" 
d="M528 166l-6 -6q-32 1 -130 1q2 -138 2 -156l-5 -5q-115 0 -201 -3l-5 6q0 12 2 34q1 21 2 69t1 55q-103 0 -142 -1l-6 8q1 9 7 82l6 7q21 -1 131 -1l-34 70q-92 0 -104 -1l-6 8q4 40 7 82l6 7q8 -1 50 -1q-4 10 -13.5 29.5t-13.5 29.5q-45 99 -76 158l3 5q106 1 201 8
l8 -6q11 -28 31 -79q3 -8 11 -28t12 -31l43 -104l36 83q43 105 61 154l7 5q50 0 167 3l3 -5q-25 -45 -113 -222q39 0 64 1l6 -6q-5 -50 -7 -85l-6 -6q-29 1 -101 1l-32 -70h46q58 0 88 1l6 -6q-5 -41 -6 -85z" />
    <glyph glyph-name="brokenbar" unicode="&#xa6;" horiz-adv-x="229" 
d="M51 675h127v-350h-127v350zM51 175h127v-350h-127v350z" />
    <glyph glyph-name="section" unicode="&#xa7;" 
d="M323 475l50 -27q20 -11 32 -19.5t28.5 -25.5t25 -42t8.5 -58q0 -51 -29 -101q-16 -27 -56 -64q53 -48 53 -111q0 -83 -59 -135q-58 -51 -160 -51q-71 0 -142 27l-6 8q7 58 11 128l8 3q40 -33 104 -33q62 0 62 47q0 15 -8.5 27t-17 17.5t-27.5 16.5l-32 17
q-34 19 -52 31.5t-40.5 33.5t-32.5 48.5t-10 63.5q0 43 17.5 80.5t32.5 52.5t38 34q-16 14 -24.5 23.5t-18 32t-9.5 49.5q0 54 26 94q51 78 174 78q67 0 148 -29l6 -9q-8 -66 -11 -123l-9 -4q-49 39 -98 39q-26 0 -41.5 -12t-15.5 -34q0 -21 15 -34.5t60 -38.5zM256 228
l41 -27q31 31 31 59q0 24 -17 40.5t-69 50.5l-43 26q-29 -34 -29 -57q0 -24 19.5 -43t66.5 -49z" />
    <glyph glyph-name="dieresis" unicode="&#xa8;" horiz-adv-x="250" 
d="M292 752l4 -4q-1 -72 0 -135l-6 -5q-57 -2 -131 -6l-4 5q-1 55 -5 135l4 4q102 4 138 6zM96 752l4 -4q-1 -72 0 -135l-6 -5q-57 -2 -131 -6l-4 5q-1 55 -5 135l4 4q102 4 138 6z" />
    <glyph glyph-name="copyright" unicode="&#xa9;" horiz-adv-x="833" 
d="M534 271l87 -81q-23 -23 -40.5 -37t-59.5 -31t-91 -17q-65 0 -115.5 21.5t-80 57t-44.5 79t-15 90.5q0 104 67 177.5t183 73.5q50 0 93.5 -17t61.5 -31.5t41 -37.5l-87 -83q-52 49 -108 49q-58 0 -92.5 -36t-34.5 -93q0 -59 34.5 -94.5t95.5 -35.5q24 0 44 7t31 15t30 24
zM773 355q0 -150 -102.5 -254t-253.5 -104q-145 0 -250.5 101t-105.5 256q0 148 104 251.5t253 103.5q126 0 222 -76q63 -48 98 -123.5t35 -154.5zM416 29q80 0 142.5 31.5t98.5 72.5q84 93 84 220q0 63 -28 133.5t-91 120.5q-90 70 -203 70q-137 0 -231.5 -95t-94.5 -229
q0 -135 94 -229.5t229 -94.5z" />
    <glyph glyph-name="ordfeminine" unicode="&#xaa;" horiz-adv-x="333" 
d="M183 343v31q-34 -37 -83 -37q-39 0 -65 30t-26 80q0 59 39 93t133 50q0 14 -2 21t-12.5 12.5t-31.5 5.5q-48 0 -90 -28l-5 3q2 28 4 81q4 5 13 9q53 21 117 21q87 0 116 -50q11 -20 13.5 -43t1.5 -78l-1 -44q0 -93 5 -155l-4 -4q-69 0 -117 -2zM181 443v80
q-54 -5 -54 -56q0 -38 29 -38q13 0 25 14z" />
    <glyph glyph-name="guillemotleft" unicode="&#xab;" horiz-adv-x="479" 
d="M255 80l-5 -8q-67 0 -133 -1l-8 5q-28 67 -34 84q-7 18 -22 54t-22 54l-8 16l-1 11q1 3 3.5 7t3.5 7q7 15 42 98t38 90l8 5h61q52 0 78 1l5 -8q-33 -65 -91 -208q20 -57 48 -120q3 -7 37 -87zM464 80l-6 -8q-67 0 -133 -1l-7 5q-1 2 -9.5 22.5t-16 38t-9.5 23.5
q-5 12 -20 49.5t-24 58.5l-8 16l-1 11q4 7 7 14q7 15 42 98t38 90l8 5h61q52 0 78 1l5 -8q-33 -66 -90 -208q16 -50 47 -120q3 -8 20 -46.5t18 -40.5z" />
    <glyph glyph-name="logicalnot" unicode="&#xac;" horiz-adv-x="667" 
d="M539 0v227h-539v127h666v-354h-127z" />
    <glyph glyph-name="registered" unicode="&#xae;" horiz-adv-x="833" 
d="M250 586h163q74 0 108 -11q40 -13 60.5 -45t20.5 -68q0 -31 -15.5 -54.5t-29.5 -32t-35 -18.5q23 -15 33.5 -30.5t17.5 -55.5q16 -102 39 -143h-126q-14 29 -25 99q-10 68 -23.5 80.5t-77.5 12.5v-192h-110v458zM360 502v-95h48q49 0 64 9q20 11 20 40q0 30 -24 41
q-13 5 -75 5h-33zM773 354q0 -149 -103.5 -253t-254.5 -104q-143 0 -248.5 101t-105.5 255q0 152 104.5 254t250.5 102q152 0 254.5 -104t102.5 -251zM416 29q137 0 231 94.5t94 230.5q0 133 -93 228t-230 95q-136 0 -230.5 -95t-94.5 -229q0 -136 94.5 -230t228.5 -94z" />
    <glyph glyph-name="macron" unicode="&#xaf;" horiz-adv-x="250" 
d="M281 730l5 -5q-6 -85 -6 -94l-7 -6q-80 2 -169 2q-90 0 -135 -1l-5 5q1 16 3 46l4 48l6 6q52 -3 148 -3q72 0 156 2z" />
    <glyph glyph-name="macron" unicode="&#x2c9;" horiz-adv-x="250" 
d="M281 730l5 -5q-6 -85 -6 -94l-7 -6q-80 2 -169 2q-90 0 -135 -1l-5 5q1 16 3 46l4 48l6 6q52 -3 148 -3q72 0 156 2z" />
    <glyph glyph-name="degree" unicode="&#xb0;" horiz-adv-x="354" 
d="M177 745q73 0 122.5 -51t49.5 -122t-50 -121.5t-122 -50.5q-71 0 -121.5 50.5t-50.5 121.5t49.5 122t122.5 51zM178 630q-23 0 -39.5 -16t-16.5 -40q0 -23 16.5 -39t39.5 -16q22 0 38.5 16.5t16.5 38.5q0 24 -16 40t-39 16z" />
    <glyph glyph-name="plusminus" unicode="&#xb1;" 
d="M469 127v-127h-437v127h437zM315 340v-156h-127v156h-156v127h156v155h127v-155h154v-127h-154z" />
    <glyph glyph-name="twosuperior" unicode="&#xb2;" horiz-adv-x="354" 
d="M38 618l4 6q76 32 124 32q62 0 105.5 -38.5t43.5 -109.5q0 -48 -23 -87q-6 -12 -75 -104q54 0 108 4l6 -5q-4 -44 -5 -105l-6 -5h-167q-9 0 -64.5 -1t-66.5 -1l-5 13q54 71 119 170q29 44 38 62t9 39q0 24 -14 40.5t-41 16.5q-38 0 -84 -36l-7 5q1 35 1 104z" />
    <glyph glyph-name="threesuperior" unicode="&#xb3;" horiz-adv-x="354" 
d="M254 516l-19 -40q11 -2 22 -7.5t25 -17.5t23 -36t9 -57q0 -54 -27 -96q-43 -64 -140 -64q-57 0 -111 22l-4 7q0 7 0.5 21.5t0.5 21.5q1 19 1 57l7 4q38 -33 75 -33q24 0 42.5 14.5t18.5 49.5q0 53 -48 53q-17 0 -37 -9l-5 6l36 72q14 29 27 58q-40 -2 -113 -4l-6 5
q4 62 5 99l6 5q66 -2 94 -1h69q41 0 61 1q4 0 24 1t24 1l5 -6q-24 -42 -65 -127z" />
    <glyph glyph-name="acute" unicode="&#xb4;" horiz-adv-x="250" 
d="M227 770l4 -6q-49 -80 -101 -170l-7 -6q-12 0 -101 -2l-3 6q41 102 57 169l7 6q55 0 144 3z" />
    <glyph glyph-name="mu" unicode="&#xb5;" horiz-adv-x="521" 
d="M299 1l1 26q-21 -27 -41 -27q-27 0 -41 24v-112q3 -51 3 -118l-6 -6q-22 1 -67 1q-49 0 -105 -4l-6 6q1 115 1 451q0 209 -3 284l5 6q79 0 176 8l7 -6v-41q0 -33 -0.5 -99t-0.5 -98q0 -107 3 -126q8 -32 36 -32q18 0 37 17q2 176 -6 371l6 6q107 3 178 8l6 -6
q-2 -140 -2 -189q0 -35 0.5 -112t0.5 -101q1 -91 3 -127l-5 -5q-102 0 -176 -3z" />
    <glyph glyph-name="mu" unicode="&#x3bc;" horiz-adv-x="521" 
d="M299 1l1 26q-21 -27 -41 -27q-27 0 -41 24v-112q3 -51 3 -118l-6 -6q-22 1 -67 1q-49 0 -105 -4l-6 6q1 115 1 451q0 209 -3 284l5 6q79 0 176 8l7 -6v-41q0 -33 -0.5 -99t-0.5 -98q0 -107 3 -126q8 -32 36 -32q18 0 37 17q2 176 -6 371l6 6q107 3 178 8l6 -6
q-2 -140 -2 -189q0 -35 0.5 -112t0.5 -101q1 -91 3 -127l-5 -5q-102 0 -176 -3z" />
    <glyph glyph-name="paragraph" unicode="&#xb6;" horiz-adv-x="667" 
d="M308 706h250v-78h-36v-795h-84v795h-118v-795h-84v459q-74 21 -110 65q-45 54 -45 135q0 70 32.5 120t82.5 73q38 19 112 21z" />
    <glyph glyph-name="periodcentered" unicode="&#xb7;" horiz-adv-x="250" 
d="M211 206l-6 -6q-88 0 -159 -3l-6 6q0 80 -2 159l5 6q88 0 160 3l6 -6q0 -78 2 -159z" />
    <glyph glyph-name="periodcentered" unicode="&#x2219;" horiz-adv-x="250" 
d="M211 206l-6 -6q-88 0 -159 -3l-6 6q0 80 -2 159l5 6q88 0 160 3l6 -6q0 -78 2 -159z" />
    <glyph glyph-name="cedilla" unicode="&#xb8;" horiz-adv-x="250" 
d="M43 -189l-6 6q21 43 67 136l7 6h96l5 -6l-36 -135l-6 -6q-73 0 -127 -1z" />
    <glyph glyph-name="onesuperior" unicode="&#xb9;" horiz-adv-x="354" 
d="M252 211l-5 -5q-67 1 -129 -2l-5 5q4 166 4 248v86q-15 -1 -39 -3l-6 5q0 16 0.5 30t1 25.5t0.5 27.5l4 4q7 1 38.5 4.5t48.5 6.5q25 5 80 13l5 -5v-15q0 -16 -1 -111t-1 -113q0 -121 4 -201z" />
    <glyph glyph-name="ordmasculine" unicode="&#xba;" horiz-adv-x="354" 
d="M181 714q158 0 158 -191q0 -95 -41 -142q-42 -48 -121 -48q-45 0 -77 15t-48 35t-24.5 50.5t-10 49t-1.5 43.5q0 96 44 143q42 45 121 45zM206 520q0 58 -5 85q-7 28 -24 28q-18 0 -23 -29q-5 -23 -5 -78q0 -54 4 -79q8 -31 25 -31q12 0 19 12q9 17 9 92z" />
    <glyph glyph-name="guillemotright" unicode="&#xbb;" horiz-adv-x="479" 
d="M15 494l6 8q67 0 133 1l7 -5q1 -2 9.5 -22.5t16 -38t9.5 -23.5q5 -12 20 -49.5t24 -58.5l8 -16l1 -11q-4 -7 -7 -14q-7 -15 -42 -98t-38 -90l-8 -5h-61q-52 0 -78 -1l-5 8q33 66 90 208q-16 49 -47 121q-3 6 -19 43t-19 43zM224 494l5 8q67 0 133 1l8 -5q28 -67 34 -84
l45 -108q4 -10 7 -16l1 -11q-1 -3 -3.5 -7t-3.5 -7q-7 -15 -42 -98t-38 -90l-8 -5h-61q-52 0 -78 -1l-5 8q33 65 91 208q-20 56 -48 121q-2 5 -10 23t-16.5 38t-10.5 25z" />
    <glyph glyph-name="onequarter" unicode="&#xbc;" horiz-adv-x="833" 
d="M808 85l-6 -5q-20 1 -42 1q1 -43 3 -76l-6 -5h-36q-46 0 -77 -2l-6 5q2 34 3 77h-139l-6 5v70l1 6q77 193 103 276l6 4q83 0 150 2l6 -5q-2 -51 -2 -157v-104q27 0 47 2l6 -5q-4 -51 -5 -89zM588 177h56l3 183zM252 210l-5 -4q-71 0 -129 -2l-5 4q4 166 4 249v85
q-7 0 -20 -0.5t-19 -1.5l-6 5q0 16 0.5 30t1 25.5t0.5 27.5l4 4q14 1 43 5t44 6q5 0 39 5.5t41 6.5l5 -4v-15q0 -16 -1 -111t-1 -113q0 -120 4 -202zM476 369l-43 -109q-74 -189 -97 -255l-14 -5q-58 -2 -96 -3l-4 6l9 24q7 18 25 60t32.5 77t24.5 59q11 26 31 76l35 87
q43 107 98 258l7 6q48 -1 101 0l4 -6q-29 -65 -113 -275z" />
    <glyph glyph-name="onehalf" unicode="&#xbd;" horiz-adv-x="833" 
d="M252 211l-5 -5q-67 1 -129 -2l-5 5q4 166 4 249v85q-36 -2 -39 -2l-6 4q2 76 2 83l4 5q55 6 87 11q5 1 21.5 3.5t35.5 5t23 3.5l5 -5v-15q0 -16 -1 -111t-1 -113q0 -121 4 -201zM464 370l-43 -110q-74 -189 -97 -255l-14 -5q-58 -2 -96 -3l-4 6l10 24q8 21 82 197l30 75
l35 87q43 108 98 259l7 5q54 0 101 1l4 -6q-29 -67 -113 -275zM517 412l4 6q76 32 124 32q62 0 105.5 -38.5t43.5 -109.5q0 -48 -23 -87q-6 -12 -75 -104q54 0 108 4l6 -5q-4 -44 -5 -105l-6 -5h-167q-89 0 -131 -2l-5 13q47 60 119 170q29 44 38 62t9 39q0 24 -14 40.5
t-41 16.5q-37 0 -85 -36l-6 5q1 35 1 104z" />
    <glyph glyph-name="threequarters" unicode="&#xbe;" horiz-adv-x="833" 
d="M808 85l-6 -5q-20 1 -42 1q1 -43 3 -76l-6 -5h-36q-46 0 -77 -2l-6 5q2 34 3 77h-139l-6 5v34q0 24 -1 36l2 6q0 2 22 58.5t47.5 124.5t33.5 93l6 4q83 0 150 2l6 -5q-2 -51 -2 -157v-104q27 0 47 2l6 -5q-4 -51 -5 -89zM588 177h56l3 183zM254 516l-19 -40
q11 -2 22 -7.5t25 -17.5t23 -36t9 -57q0 -54 -27 -96q-43 -64 -140 -64q-57 0 -111 22l-4 7q0 7 0.5 21.5t0.5 21.5q1 19 1 57l7 4q38 -33 75 -33q24 0 42.5 14.5t18.5 49.5q0 53 -48 52q-21 0 -37 -9l-5 7l36 72q14 29 27 58q-40 -2 -113 -4l-6 5q4 62 5 99l6 5
q66 -2 94 -1h69q41 0 61 1q4 0 24 1t24 1l5 -6q-24 -42 -65 -127zM487 370l-42 -109q-70 -177 -98 -256l-14 -5q-58 -2 -96 -3l-4 6l9 24q74 176 82 197q14 32 31 76l35 86q53 134 98 258l7 5q55 0 102 1l3 -6q-7 -17 -43 -104.5t-70 -169.5z" />
    <glyph glyph-name="questiondown" unicode="&#xbf;" horiz-adv-x="396" 
d="M145 700l6 6q88 0 159 3l6 -6q0 -79 2 -159l-5 -6q-88 0 -160 -3l-6 6q0 78 -2 159zM373 26l-8 -9q-64 -29 -144 -29q-38 0 -74 9q-42 11 -70 35.5t-38.5 54.5t-13.5 48t-3 34q0 38 12.5 73t26 56t44.5 63q44 67 46 106l9 6q58 0 132 5l8 -6q-1 -47 -46 -130l-17 -29
q-35 -55 -35 -102q0 -29 9.5 -49.5t24 -29t26.5 -11.5t24 -3q43 0 81 35l9 -4q-3 -89 -3 -123z" />
    <glyph glyph-name="Agrave" unicode="&#xc0;" horiz-adv-x="625" 
d="M423 -2l-6 5q-12 70 -32 171h-160q-21 -84 -36 -168l-6 -6q-105 0 -178 -2l-5 5q20 64 55 195l46 167q19 65 43 152q2 6 23.5 86.5t26.5 98.5l6 5q141 0 241 3l6 -6q6 -26 10 -39q50 -196 75 -291l45 -176q5 -19 17.5 -70.5t17.5 -70.5q6 -21 13 -49l-5 -6q-20 0 -197 -4
zM275 419l-26 -105q36 -1 106 1l-22 112q-16 83 -25 147q-13 -69 -33 -155zM163 902l3 6q118 2 152 3l6 -6q15 -60 20 -76q13 -37 23 -72l-4 -6q-77 -2 -95 -3l-7 6q-50 78 -98 148z" />
    <glyph glyph-name="Aacute" unicode="&#xc1;" horiz-adv-x="625" 
d="M423 -2l-6 5q-12 70 -32 171h-160q-21 -84 -36 -168l-6 -6q-105 0 -178 -2l-5 5q20 64 55 195l46 167q19 65 43 152q2 6 23.5 86.5t26.5 98.5l6 5q141 0 241 3l6 -6q6 -26 10 -39q50 -196 75 -291l45 -176q5 -19 17.5 -70.5t17.5 -70.5q6 -21 13 -49l-5 -6q-20 0 -197 -4
zM275 419l-26 -105q36 -1 106 1l-22 112q-16 83 -25 147q-13 -69 -33 -155zM455 911l5 -6q-50 -70 -103 -148l-7 -6q-9 0 -39.5 -1t-56.5 -2l-4 6q27 69 51 148l7 6q100 2 147 3z" />
    <glyph glyph-name="Acircumflex" unicode="&#xc2;" horiz-adv-x="625" 
d="M423 -2l-6 5q-12 70 -32 171h-160q-21 -84 -36 -168l-6 -6q-105 0 -178 -2l-5 5q20 64 55 195l46 167q19 65 43 152q2 6 23.5 86.5t26.5 98.5l6 5q141 0 241 3l6 -6q6 -26 10 -39q50 -196 75 -291l45 -176q5 -19 17.5 -70.5t17.5 -70.5q6 -21 13 -49l-5 -6q-20 0 -197 -4
zM275 419l-26 -105q36 -1 106 1l-22 112q-16 83 -25 147q-13 -69 -33 -155zM349 747l-6 6q-13 33 -35 86q-20 -41 -42 -84l-8 -6q-46 2 -111 3l-3 5q52 96 71 146l7 6q68 0 179 3l6 -6q30 -67 73 -147l-3 -6q-68 -3 -128 -6z" />
    <glyph glyph-name="Atilde" unicode="&#xc3;" horiz-adv-x="625" 
d="M423 -2l-6 5q-12 70 -32 171h-160q-21 -84 -36 -168l-6 -6q-105 0 -178 -2l-5 5q20 64 55 195l46 167q19 65 43 152q2 6 23.5 86.5t26.5 98.5l6 5q141 0 241 3l6 -6q6 -26 10 -39q50 -196 75 -291l45 -176q5 -19 17.5 -70.5t17.5 -70.5q6 -21 13 -49l-5 -6q-20 0 -197 -4
zM275 419l-26 -105q36 -1 106 1l-22 112q-16 83 -25 147q-13 -69 -33 -155zM464 905l6 -4q0 -7 0.5 -22.5t0.5 -23.5q0 -19 2 -59l-3 -8q-42 -38 -86 -38q-18 0 -51 12l-30 13q-40 15 -60 15q-23 0 -37 -6.5t-40 -27.5l-6 5q1 48 1 105q0 4 8 12q30 26 73 26q15 0 41 -7
l40 -16q43 -15 64 -15q45 0 77 39z" />
    <glyph glyph-name="Adieresis" unicode="&#xc4;" horiz-adv-x="625" 
d="M423 -2l-6 5q-12 70 -32 171h-160q-21 -84 -36 -168l-6 -6q-105 0 -178 -2l-5 5q20 64 55 195l46 167q19 65 43 152q2 6 23.5 86.5t26.5 98.5l6 5q141 0 241 3l6 -6q6 -26 10 -39q50 -196 75 -291l45 -176q5 -19 17.5 -70.5t17.5 -70.5q6 -21 13 -49l-5 -6q-20 0 -197 -4
zM275 419l-26 -105q36 -1 106 1l-22 112q-16 83 -25 147q-13 -69 -33 -155zM485 902l4 -4q-1 -72 0 -135l-6 -5q-57 -2 -131 -6l-4 5q-1 55 -5 135l4 4q102 4 138 6zM275 902l4 -4q-1 -72 0 -135l-6 -5q-53 -2 -131 -6l-4 5q-1 55 -5 135l4 4q102 4 138 6z" />
    <glyph glyph-name="Aring" unicode="&#xc5;" horiz-adv-x="625" 
d="M423 -2l-6 5q-12 70 -32 171h-160q-21 -84 -36 -168l-6 -6q-105 0 -178 -2l-5 5q20 64 55 195l46 167q19 65 43 152q2 6 23.5 86.5t26.5 98.5l6 5q141 0 241 3l6 -6q6 -26 10 -39q50 -196 75 -291l45 -176q5 -19 17.5 -70.5t17.5 -70.5q6 -21 13 -49l-5 -6q-20 0 -197 -4
zM275 419l-26 -105q36 -1 106 1l-22 112q-16 83 -25 147q-13 -69 -33 -155zM313 974q51 0 85.5 -28.5t34.5 -87.5q0 -53 -31 -83t-89 -30q-59 0 -89.5 30.5t-30.5 79.5q0 55 32.5 87t87.5 32zM350 860q0 61 -37 61t-37 -61q0 -27 9.5 -44t27.5 -17t27.5 17t9.5 44z" />
    <glyph glyph-name="AE" unicode="&#xc6;" horiz-adv-x="812" 
d="M388 -3l-5 6q2 54 4 182q-65 1 -141 1l-20 -69q-14 -48 -29 -111l-6 -6q-99 1 -187 -3l-4 6q44 116 78 215l68 190q64 172 101 293l7 6h285l237 3l6 -6q-2 -30 -7 -135l-6 -6q-68 1 -106 1q-32 0 -86 -1q0 -20 -0.5 -60t-0.5 -71q118 0 184 2l5 -6q-3 -43 -8 -131l-6 -6
q-5 0 -49 1h-45q-5 0 -40 -0.5t-42 -0.5v-140q121 0 215 6l5 -6q-6 -78 -9 -145l-6 -6h-227q-17 0 -165 -3zM393 565h-28q-18 -56 -38.5 -119.5t-37.5 -115.5q47 -2 100 -1q3 107 4 236z" />
    <glyph glyph-name="Ccedilla" unicode="&#xc7;" horiz-adv-x="542" 
d="M509 180l6 -2q-5 -86 -7 -162l-4 -5q-51 -24 -145 -24q-158 0 -241 87q-89 93 -89 269q0 195 100 295q82 82 229 82q98 0 155 -28l4 -6q-4 -43 -6 -86q-2 -25 -4 -75l-6 -3q-50 41 -105 41q-76 0 -114 -59q-37 -55 -37 -153q0 -121 58 -174q38 -33 97 -33q60 0 109 36z
M240 -189l-5 6q31 66 66 136l7 6h97l5 -6l-36 -135l-7 -6q-73 0 -127 -1z" />
    <glyph glyph-name="Egrave" unicode="&#xc8;" horiz-adv-x="479" 
d="M424 299l-6 -6q-42 1 -177 1v-144q142 0 214 6l6 -6q-6 -72 -8 -144l-6 -6h-222q-118 0 -181 -3l-5 6q4 150 4 318q0 260 -7 379l6 6q56 0 167 1q191 1 233 2l5 -6q-4 -45 -7 -134l-6 -6q-8 0 -56.5 0.5t-57.5 0.5q-17 0 -79 -1q-1 -68 0 -131q96 0 184 4l6 -6
q-2 -24 -3 -43.5t-2 -43.5t-2 -44zM90 902l3 6q118 2 152 3l6 -6q15 -60 20 -76q13 -37 23 -72l-4 -6q-77 -2 -95 -3l-7 6q-50 78 -98 148z" />
    <glyph glyph-name="Eacute" unicode="&#xc9;" horiz-adv-x="479" 
d="M424 299l-6 -6q-42 1 -177 1v-144q142 0 214 6l6 -6q-6 -72 -8 -144l-6 -6h-222q-118 0 -181 -3l-5 6q4 150 4 318q0 260 -7 379l6 6q56 0 167 1q191 1 233 2l5 -6q-4 -45 -7 -134l-6 -6q-8 0 -56.5 0.5t-57.5 0.5q-17 0 -79 -1q-1 -68 0 -131q96 0 184 4l6 -6
q-2 -24 -3 -43.5t-2 -43.5t-2 -44zM382 911l5 -6q-50 -70 -103 -148l-7 -6q-9 0 -39.5 -1t-56.5 -2l-4 6q27 69 51 148l7 6q101 2 147 3z" />
    <glyph glyph-name="Ecircumflex" unicode="&#xca;" horiz-adv-x="479" 
d="M424 299l-6 -6q-42 1 -177 1v-144q142 0 214 6l6 -6q-6 -72 -8 -144l-6 -6h-222q-118 0 -181 -3l-5 6q4 150 4 318q0 260 -7 379l6 6q56 0 167 1q191 1 233 2l5 -6q-4 -45 -7 -134l-6 -6q-8 0 -56.5 0.5t-57.5 0.5q-17 0 -79 -1q-1 -68 0 -131q96 0 184 4l6 -6
q-2 -24 -3 -43.5t-2 -43.5t-2 -44zM276 747l-6 6q-13 33 -35 86q-20 -41 -42 -84l-8 -6q-46 2 -111 3l-3 5q52 96 71 146l7 6q68 0 179 3l6 -6q30 -67 73 -147l-3 -6q-68 -3 -128 -6z" />
    <glyph glyph-name="Edieresis" unicode="&#xcb;" horiz-adv-x="479" 
d="M424 299l-6 -6q-42 1 -177 1v-144q142 0 214 6l6 -6q-6 -72 -8 -144l-6 -6h-222q-118 0 -181 -3l-5 6q4 150 4 318q0 260 -7 379l6 6q56 0 167 1q191 1 233 2l5 -6q-4 -45 -7 -134l-6 -6q-8 0 -56.5 0.5t-57.5 0.5q-17 0 -79 -1q-1 -68 0 -131q96 0 184 4l6 -6
q-2 -24 -3 -43.5t-2 -43.5t-2 -44zM412 902l4 -4q-1 -72 0 -135l-6 -5q-57 -2 -131 -6l-4 5q-1 55 -5 135l4 4q102 4 138 6zM202 902l4 -4q-1 -72 0 -135l-6 -5q-53 -2 -131 -6l-4 5q-1 55 -5 135l4 4q102 4 138 6z" />
    <glyph glyph-name="Igrave" unicode="&#xcc;" horiz-adv-x="292" 
d="M254 5l-5 -5q-92 1 -204 -3l-5 5q3 216 3 432q0 148 -5 266l6 6q106 -1 203 3l6 -6q-5 -135 -5 -288q0 -246 6 -410zM-3 902l3 6q118 2 152 3l6 -6q15 -60 20 -76q13 -37 23 -72l-4 -6q-77 -2 -95 -3l-7 6q-50 78 -98 148z" />
    <glyph glyph-name="Iacute" unicode="&#xcd;" horiz-adv-x="292" 
d="M254 5l-5 -5q-92 1 -204 -3l-5 5q3 216 3 432q0 148 -5 266l6 6q106 -1 203 3l6 -6q-5 -135 -5 -288q0 -246 6 -410zM289 911l5 -6q-50 -70 -103 -148l-7 -6q-9 0 -39.5 -1t-56.5 -2l-4 6q27 69 51 148l7 6q100 2 147 3z" />
    <glyph glyph-name="Icircumflex" unicode="&#xce;" horiz-adv-x="292" 
d="M254 5l-5 -5q-92 1 -204 -3l-5 5q3 216 3 432q0 148 -5 266l6 6q106 -1 203 3l6 -6q-5 -135 -5 -288q0 -246 6 -410zM183 747l-6 6q-13 33 -35 86q-20 -41 -42 -84l-8 -6q-46 2 -111 3l-3 5q52 96 71 146l7 6q68 0 179 3l6 -6q30 -67 73 -147l-3 -6q-68 -3 -128 -6z" />
    <glyph glyph-name="Idieresis" unicode="&#xcf;" horiz-adv-x="292" 
d="M254 5l-5 -5q-92 1 -204 -3l-5 5q3 216 3 432q0 148 -5 266l6 6q106 -1 203 3l6 -6q-5 -135 -5 -288q0 -246 6 -410zM319 902l4 -4q-1 -72 0 -135l-6 -5q-57 -2 -131 -6l-4 5q-1 55 -5 135l4 4q102 4 138 6zM109 902l4 -4q-1 -72 0 -135l-6 -5q-53 -2 -131 -6l-4 5
q-1 55 -5 135l4 4q102 4 138 6z" />
    <glyph glyph-name="Eth" unicode="&#xd0;" horiz-adv-x="625" 
d="M38 700l5 6h211q136 0 192 -24q150 -63 150 -318q0 -170 -66 -261q-33 -45 -82.5 -69t-85.5 -28.5t-90 -5.5q-17 -1 -113 -2t-114 -1l-5 6q2 140 2 317q-6 0 -36 -2l-6 5v85l6 6q11 -1 36 -1q0 138 -4 287zM315 324h-74q0 -58 2 -174q43 -2 68.5 7t44.5 43q29 53 29 180
q0 42 -7 80q-10 55 -36 77t-70 22q-19 0 -31 -1v-66q0 -50 1 -75q46 1 77 4l6 -6q-2 -34 -3 -85z" />
    <glyph glyph-name="Ntilde" unicode="&#xd1;" horiz-adv-x="646" 
d="M310 203l-113 184l6 -146q2 -83 9 -235l-7 -6q-82 0 -158 -3l-6 6q2 102 2 179q0 40 -1 171.5t-1 160.5q-1 62 -5 186l6 6q101 0 180 3l8 -5q33 -63 124 -208l96 -149l-4 169q0 1 -2.5 84t-3.5 100l6 6q32 0 57.5 0.5t51.5 1.5t43 1l6 -6q0 -30 -1 -216.5t-1 -221.5
q0 -91 3 -259l-6 -6q-88 0 -164 -3l-7 6q-52 92 -118 200zM475 905l6 -4q0 -7 0.5 -22.5t0.5 -23.5q0 -19 2 -59l-3 -8q-42 -38 -86 -38q-18 0 -51 12l-30 13q-40 15 -60 15q-23 0 -37 -6.5t-40 -27.5l-6 5q1 48 1 105q0 4 8 12q30 26 73 26q15 0 41 -7l40 -16
q43 -15 64 -15q46 0 77 39z" />
    <glyph glyph-name="Ograve" unicode="&#xd2;" horiz-adv-x="646" 
d="M323 720q130 0 204 -77q90 -94 90 -295q0 -75 -13 -132q-16 -77 -58 -130q-78 -99 -225 -99q-143 0 -221 97q-71 91 -71 260q0 202 90 297q75 79 204 79zM409 350q0 105 -14 158q-21 68 -71 68q-24 0 -44 -18q-32 -30 -40 -123q-3 -36 -3 -86q0 -41 3 -80q9 -91 43 -120
q18 -15 40 -15t40 15q33 27 43 120q3 41 3 81zM174 902l3 6q118 2 152 3l6 -6q15 -60 20 -76q13 -37 23 -72l-4 -6q-77 -2 -95 -3l-7 6q-50 78 -98 148z" />
    <glyph glyph-name="Oacute" unicode="&#xd3;" horiz-adv-x="646" 
d="M323 720q130 0 204 -77q90 -94 90 -295q0 -75 -13 -132q-16 -77 -58 -130q-78 -99 -225 -99q-143 0 -221 97q-71 91 -71 260q0 202 90 297q75 79 204 79zM409 350q0 105 -14 158q-21 68 -71 68q-24 0 -44 -18q-32 -30 -40 -123q-3 -36 -3 -86q0 -41 3 -80q9 -91 43 -120
q18 -15 40 -15t40 15q33 27 43 120q3 41 3 81zM466 911l5 -6q-50 -70 -103 -148l-7 -6q-9 0 -39.5 -1t-56.5 -2l-4 6q27 69 51 148l7 6q101 2 147 3z" />
    <glyph glyph-name="Ocircumflex" unicode="&#xd4;" horiz-adv-x="646" 
d="M323 720q130 0 204 -77q90 -94 90 -295q0 -75 -13 -132q-16 -77 -58 -130q-78 -99 -225 -99q-143 0 -221 97q-71 91 -71 260q0 202 90 297q75 79 204 79zM409 350q0 105 -14 158q-21 68 -71 68q-24 0 -44 -18q-32 -30 -40 -123q-3 -36 -3 -86q0 -41 3 -80q9 -91 43 -120
q18 -15 40 -15t40 15q33 27 43 120q3 41 3 81zM360 747l-6 6q-13 33 -35 86q-20 -41 -42 -84l-8 -6q-46 2 -111 3l-3 5q52 96 71 146l7 6q68 0 179 3l6 -6q30 -67 73 -147l-3 -6q-68 -3 -128 -6z" />
    <glyph glyph-name="Otilde" unicode="&#xd5;" horiz-adv-x="646" 
d="M323 720q130 0 204 -77q90 -94 90 -295q0 -75 -13 -132q-16 -77 -58 -130q-78 -99 -225 -99q-143 0 -221 97q-71 91 -71 260q0 202 90 297q75 79 204 79zM409 350q0 105 -14 158q-21 68 -71 68q-24 0 -44 -18q-32 -30 -40 -123q-3 -36 -3 -86q0 -41 3 -80q9 -91 43 -120
q18 -15 40 -15t40 15q33 27 43 120q3 41 3 81zM475 905l6 -4q0 -7 0.5 -22.5t0.5 -23.5q0 -19 2 -59l-3 -8q-42 -38 -86 -38q-18 0 -51 12l-30 13q-40 15 -60 15q-23 0 -37 -6.5t-40 -27.5l-6 5q1 48 1 105q0 4 8 12q30 26 73 26q15 0 41 -7l40 -16q43 -15 64 -15
q46 0 77 39z" />
    <glyph glyph-name="Odieresis" unicode="&#xd6;" horiz-adv-x="646" 
d="M323 720q130 0 204 -77q90 -94 90 -295q0 -75 -13 -132q-16 -77 -58 -130q-78 -99 -225 -99q-143 0 -221 97q-71 91 -71 260q0 202 90 297q75 79 204 79zM409 350q0 105 -14 158q-21 68 -71 68q-24 0 -44 -18q-32 -30 -40 -123q-3 -36 -3 -86q0 -41 3 -80q9 -91 43 -120
q18 -15 40 -15t40 15q33 27 43 120q3 41 3 81zM496 902l4 -4q-1 -72 0 -135l-6 -5q-57 -2 -131 -6l-4 5q-1 55 -5 135l4 4q102 4 138 6zM286 902l4 -4q-1 -72 0 -135l-6 -5q-53 -2 -131 -6l-4 5q-1 55 -5 135l4 4q102 4 138 6z" />
    <glyph glyph-name="multiply" unicode="&#xd7;" 
d="M340 291l124 -123l-90 -91l-124 123l-124 -123l-90 91l124 123l-124 125l90 89l124 -124l124 124l90 -89z" />
    <glyph glyph-name="Oslash" unicode="&#xd8;" horiz-adv-x="646" 
d="M626 688l-1 -10q-35 -39 -66 -77q26 -38 39 -92q19 -69 19 -165q0 -169 -71 -258q-77 -99 -225 -99q-110 0 -186 62q-1 -2 -12.5 -17.5t-21.5 -30t-13 -18.5l-9 -3q-32 26 -58 43v9q40 44 63 74q-55 88 -55 241q0 182 76 277.5t218 95.5q58 0 107 -16q44 -16 80 -46
q25 34 51 72l9 2q28 -25 56 -44zM409 402l-158 -204q0 -1 0.5 -3.5t0.5 -3.5q7 -29 26 -44.5t44 -15.5q75 0 87 137q3 38 3 75q0 43 -3 59zM235 307l160 205q-8 37 -28.5 51.5t-41.5 14.5q-72 0 -85 -118q-7 -50 -5 -153z" />
    <glyph glyph-name="Ugrave" unicode="&#xd9;" horiz-adv-x="604" 
d="M559 709l6 -6q-1 -52 -4 -349l-1 -49q-1 -105 -7.5 -148t-32.5 -81q-62 -89 -218 -89q-202 0 -247 145q-14 44 -14 179v42q-1 69 -1 176q0 83 -3 171l5 6q108 0 201 3l5 -6q-3 -131 -3 -393q0 -74 4 -105t19 -50q18 -23 50 -23q20 0 34 9t21 21t10.5 35t4 38.5t0.5 43.5
q2 106 2 324q0 50 -1 97l6 6q69 0 164 3zM153 902l3 6q118 2 152 3l6 -6q15 -60 20 -76q13 -37 23 -72l-4 -6q-77 -2 -95 -3l-7 6q-50 78 -98 148z" />
    <glyph glyph-name="Uacute" unicode="&#xda;" horiz-adv-x="604" 
d="M559 709l6 -6q-1 -52 -4 -349l-1 -49q-1 -105 -7.5 -148t-32.5 -81q-62 -89 -218 -89q-202 0 -247 145q-14 44 -14 179v42q-1 69 -1 176q0 83 -3 171l5 6q108 0 201 3l5 -6q-3 -131 -3 -393q0 -74 4 -105t19 -50q18 -23 50 -23q20 0 34 9t21 21t10.5 35t4 38.5t0.5 43.5
q2 106 2 324q0 50 -1 97l6 6q69 0 164 3zM445 911l5 -6q-50 -70 -103 -148l-7 -6q-9 0 -39.5 -1t-56.5 -2l-4 6q27 69 51 148l7 6q100 2 147 3z" />
    <glyph glyph-name="Ucircumflex" unicode="&#xdb;" horiz-adv-x="604" 
d="M559 709l6 -6q-1 -52 -4 -349l-1 -49q-1 -105 -7.5 -148t-32.5 -81q-62 -89 -218 -89q-202 0 -247 145q-14 44 -14 179v42q-1 69 -1 176q0 83 -3 171l5 6q108 0 201 3l5 -6q-3 -131 -3 -393q0 -74 4 -105t19 -50q18 -23 50 -23q20 0 34 9t21 21t10.5 35t4 38.5t0.5 43.5
q2 106 2 324q0 50 -1 97l6 6q69 0 164 3zM339 747l-6 6q-13 33 -35 86q-20 -41 -42 -84l-8 -6q-46 2 -111 3l-3 5q52 96 71 146l7 6q68 0 179 3l6 -6q30 -67 73 -147l-3 -6q-68 -3 -128 -6z" />
    <glyph glyph-name="Udieresis" unicode="&#xdc;" horiz-adv-x="604" 
d="M559 709l6 -6q-1 -52 -4 -349l-1 -49q-1 -105 -7.5 -148t-32.5 -81q-62 -89 -218 -89q-202 0 -247 145q-14 44 -14 179v42q-1 69 -1 176q0 83 -3 171l5 6q108 0 201 3l5 -6q-3 -131 -3 -393q0 -74 4 -105t19 -50q18 -23 50 -23q20 0 34 9t21 21t10.5 35t4 38.5t0.5 43.5
q2 106 2 324q0 50 -1 97l6 6q69 0 164 3zM487 902l4 -4q-1 -72 0 -135l-6 -5q-57 -2 -131 -6l-4 5q-1 55 -5 135l4 4q102 4 138 6zM277 902l4 -4q-1 -72 0 -135l-6 -5q-53 -2 -131 -6l-4 5q-1 55 -5 135l4 4q102 4 138 6z" />
    <glyph glyph-name="Yacute" unicode="&#xdd;" horiz-adv-x="583" 
d="M461 439l-69 -164v-109q0 -102 3 -160l-5 -6q-93 1 -202 -3l-5 6q6 88 6 266l-77 172l-36 84q-51 122 -75 173l3 6q99 1 201 8l7 -6q2 -5 5.5 -15t5.5 -15q2 -4 12 -32.5t19 -54.5t12 -34l44 -112l35 89q38 99 62 168l6 6q61 0 167 3l4 -6q-28 -54 -123 -264zM435 911
l5 -6q-50 -70 -103 -148l-7 -6q-9 0 -39.5 -1t-56.5 -2l-4 6q27 69 51 148l7 6q100 2 147 3z" />
    <glyph glyph-name="Thorn" unicode="&#xde;" horiz-adv-x="542" 
d="M247 709l5 -6q-1 -25 -2 -82q4 0 27 0.5t28 0.5q111 0 167 -62q52 -57 52 -164q0 -117 -53 -180q-23 -27 -50 -44t-60 -23.5t-54 -8t-57 -1.5q1 -26 1.5 -55.5t1.5 -47.5t1 -30l-6 -6q-96 2 -203 -3l-6 6q4 288 4 432q0 148 -5 265l5 6q107 -1 204 3zM249 481
q-1 -88 -1 -197q28 0 41 6q42 20 42 110q0 48 -17 65.5t-45 17.5q-11 0 -20 -2z" />
    <glyph glyph-name="germandbls" unicode="&#xdf;" horiz-adv-x="542" 
d="M226 5l-7 -5q-102 0 -182 -3l-7 6q2 136 2 205q0 91 -3 217v46q-1 56 0.5 84t11.5 61.5t31 58.5q61 73 195 73q88 0 140 -36q62 -43 62 -121q0 -48 -31 -113l-14 -27q-12 -22 -12 -36q0 -12 26 -46l26 -36q20 -28 31 -46.5t20 -47t9 -60.5q0 -111 -83 -159
q-47 -25 -125 -25q-32 0 -54 5l-6 6q0 61 -1 112l8 4q14 -7 24 -7q16 0 28 12.5t12 35.5q0 26 -25 74l-33 65q-17 31 -17 58q0 17 19 60l14 30q25 61 25 108q0 36 -14 53t-32 17q-28 0 -38 -31q-7 -17 -7 -113q0 -94 3 -238q1 -29 1.5 -62.5t1 -74t0.5 -62.5q0 -7 0.5 -21
t0.5 -21z" />
    <glyph glyph-name="agrave" unicode="&#xe0;" horiz-adv-x="479" 
d="M264 3v45q-48 -55 -122 -55q-57 0 -95 44.5t-38 118.5q0 87 57 136t194 72q1 31 -10.5 44.5t-56.5 13.5q-69 0 -131 -41l-8 4q3 49 6 119l6 7q82 36 185 36q125 0 169 -72q17 -28 20 -61t2 -117l-1 -64q0 -132 8 -227l-7 -6q-76 1 -171 -3zM261 149v117q-80 -6 -80 -81
q0 -24 11 -40t32 -16q20 0 37 20zM91 761l4 6q81 0 145 3l6 -6q7 -30 26 -89q1 -3 8 -21.5t13.5 -36t8.5 -23.5l-4 -6q-64 0 -107 -2l-6 6q-41 80 -94 169z" />
    <glyph glyph-name="aacute" unicode="&#xe1;" horiz-adv-x="479" 
d="M264 3v45q-48 -55 -122 -55q-57 0 -95 44.5t-38 118.5q0 87 57 136t194 72q1 31 -10.5 44.5t-56.5 13.5q-69 0 -131 -41l-8 4q3 49 6 119l6 7q82 36 185 36q125 0 169 -72q17 -28 20 -61t2 -117l-1 -64q0 -132 8 -227l-7 -6q-76 1 -171 -3zM261 149v117q-80 -6 -80 -81
q0 -24 11 -40t32 -16q20 0 37 20zM389 770l4 -6q-49 -80 -101 -170l-7 -6q-12 0 -101 -2l-3 6q41 102 57 169l7 6q55 0 144 3z" />
    <glyph glyph-name="acircumflex" unicode="&#xe2;" horiz-adv-x="479" 
d="M264 3v45q-48 -55 -122 -55q-57 0 -95 44.5t-38 118.5q0 87 57 136t194 72q1 31 -10.5 44.5t-56.5 13.5q-69 0 -131 -41l-8 4q3 49 6 119l6 7q82 36 185 36q125 0 169 -72q17 -28 20 -61t2 -117l-1 -64q0 -132 8 -227l-7 -6q-76 1 -171 -3zM261 149v117q-80 -6 -80 -81
q0 -24 11 -40t32 -16q20 0 37 20zM406 595l-5 -6q-63 0 -123 -4l-6 6q-1 2 -18.5 60.5t-19.5 62.5l-17 -51t-25 -71l-6 -6q-20 0 -51 1t-50 2l-4 6q33 67 72 166l6 6q55 0 171 3l8 -6q4 -13 30.5 -79.5t37.5 -89.5z" />
    <glyph glyph-name="atilde" unicode="&#xe3;" horiz-adv-x="479" 
d="M264 3v45q-48 -55 -122 -55q-57 0 -95 44.5t-38 118.5q0 87 57 136t194 72q1 31 -10.5 44.5t-56.5 13.5q-69 0 -131 -41l-8 4q3 49 6 119l6 7q82 36 185 36q125 0 169 -72q17 -28 20 -61t2 -117l-1 -64q0 -132 8 -227l-7 -6q-76 1 -171 -3zM261 149v117q-80 -6 -80 -81
q0 -24 11 -40t32 -16q20 0 37 20zM387 752l6 -4q1 -15 1 -46q0 -10 1 -29.5t1 -29.5l-3 -8q-42 -38 -85 -38q-19 0 -52 12l-30 13q-40 15 -60 15q-23 0 -37 -6.5t-40 -27.5l-6 5q1 48 1 105q0 4 8 12q31 26 72 26q19 0 42 -7l39 -16q45 -15 65 -15q46 0 77 39z" />
    <glyph glyph-name="adieresis" unicode="&#xe4;" horiz-adv-x="479" 
d="M264 3v45q-48 -55 -122 -55q-57 0 -95 44.5t-38 118.5q0 87 57 136t194 72q1 31 -10.5 44.5t-56.5 13.5q-69 0 -131 -41l-8 4q3 49 6 119l6 7q82 36 185 36q125 0 169 -72q17 -28 20 -61t2 -117l-1 -64q0 -132 8 -227l-7 -6q-76 1 -171 -3zM261 149v117q-80 -6 -80 -81
q0 -24 11 -40t32 -16q20 0 37 20zM405 752l4 -4q-1 -72 0 -135l-6 -5q-57 -2 -131 -6l-4 5q-1 55 -5 135l4 4q102 4 138 6zM209 752l4 -4q-1 -72 0 -135l-6 -5q-57 -2 -131 -6l-4 5q-1 55 -5 135l4 4q102 4 138 6z" />
    <glyph glyph-name="aring" unicode="&#xe5;" horiz-adv-x="479" 
d="M264 3v45q-48 -55 -122 -55q-57 0 -95 44.5t-38 118.5q0 87 57 136t194 72q1 31 -10.5 44.5t-56.5 13.5q-69 0 -131 -41l-8 4q3 49 6 119l6 7q82 36 185 36q125 0 169 -72q17 -28 20 -61t2 -117l-1 -64q0 -132 8 -227l-7 -6q-76 1 -171 -3zM261 149v117q-80 -6 -80 -81
q0 -24 11 -40t32 -16q20 0 37 20zM241 800q53 0 86.5 -29t33.5 -86q0 -54 -31.5 -84t-88.5 -30q-59 0 -89.5 30.5t-30.5 79.5q0 54 32 86.5t88 32.5zM278 686q0 61 -37 61t-37 -61q0 -27 9.5 -44t27.5 -17t27.5 17t9.5 44z" />
    <glyph glyph-name="ae" unicode="&#xe6;" horiz-adv-x="750" 
d="M718 222h-257q1 -34 18 -56q32 -45 112 -45q63 0 110 35l7 -5q-5 -71 -5 -120l-7 -9q-82 -34 -163 -34q-37 0 -66 5q-70 13 -117 60q-45 -36 -80.5 -50.5t-78.5 -14.5q-35 0 -64 8q-58 17 -85.5 63t-27.5 97t26 92.5t80 62.5q50 20 161 20q1 12 1 24q0 73 -91 73
q-77 0 -128 -41l-9 4q4 52 5 113l6 6q76 37 167 37q95 0 141 -55q22 22 46 34q42 21 99 21q53 0 93 -18q66 -29 90.5 -92t24.5 -151q0 -5 -2 -57zM456 332h94q0 94 -45 94q-25 0 -37 -28q-10 -21 -12 -66zM275 222q-8 1 -23 1q-29 0 -43 -13.5t-14 -35.5q0 -17 10.5 -32.5
t34.5 -15.5q23 0 49 24q-11 29 -14 72z" />
    <glyph glyph-name="ccedilla" unicode="&#xe7;" horiz-adv-x="396" 
d="M371 141l6 -3q-4 -56 -5 -123l-5 -6q-54 -19 -115 -19q-45 0 -83.5 13.5t-72.5 42t-53.5 81t-19.5 123.5q0 297 245 297q58 0 105 -18l4 -7q-1 -10 -2 -30.5t-2 -30.5l-3 -69l-6 -3q-29 24 -59 24q-36 0 -57 -29q-28 -36 -28 -122q0 -135 95 -135q32 0 56 14zM124 -189
l-5 6q31 66 66 136l7 6h97l5 -6l-36 -135l-7 -6q-73 0 -127 -1z" />
    <glyph glyph-name="egrave" unicode="&#xe8;" horiz-adv-x="479" 
d="M448 222h-243q1 -48 32 -74.5t83 -26.5q65 0 113 35l7 -4q-4 -62 -6 -126l-6 -7q-57 -31 -150 -31q-64 0 -111 17q-144 53 -144 260q0 67 11 111q19 79 73.5 125.5t141.5 46.5q52 0 92 -17q36 -16 60.5 -42t36 -60t15.5 -64.5t4 -68.5q0 -2 -2 -68zM202 333h80
q0 19 -0.5 30.5t-4 28.5t-12 25.5t-21.5 8.5q-42 0 -42 -93zM91 761l4 6q81 0 145 3l6 -6q7 -30 26 -89q1 -3 8 -21.5t13.5 -36t8.5 -23.5l-4 -6q-64 0 -107 -2l-6 6q-41 80 -94 169z" />
    <glyph glyph-name="eacute" unicode="&#xe9;" horiz-adv-x="479" 
d="M448 222h-243q1 -48 32 -74.5t83 -26.5q65 0 113 35l7 -4q-4 -62 -6 -126l-6 -7q-57 -31 -150 -31q-64 0 -111 17q-144 53 -144 260q0 67 11 111q19 79 73.5 125.5t141.5 46.5q52 0 92 -17q36 -16 60.5 -42t36 -60t15.5 -64.5t4 -68.5q0 -2 -2 -68zM202 333h80
q0 19 -0.5 30.5t-4 28.5t-12 25.5t-21.5 8.5q-42 0 -42 -93zM389 770l4 -6q-49 -80 -101 -170l-7 -6q-12 0 -101 -2l-3 6q41 102 57 169l7 6q55 0 144 3z" />
    <glyph glyph-name="ecircumflex" unicode="&#xea;" horiz-adv-x="479" 
d="M448 222h-243q1 -48 32 -74.5t83 -26.5q65 0 113 35l7 -4q-4 -62 -6 -126l-6 -7q-57 -31 -150 -31q-64 0 -111 17q-144 53 -144 260q0 67 11 111q19 79 73.5 125.5t141.5 46.5q52 0 92 -17q36 -16 60.5 -42t36 -60t15.5 -64.5t4 -68.5q0 -2 -2 -68zM202 333h80
q0 19 -0.5 30.5t-4 28.5t-12 25.5t-21.5 8.5q-42 0 -42 -93zM417 595l-5 -6q-63 0 -123 -4l-6 6q-1 2 -18.5 60.5t-19.5 62.5l-17 -51t-25 -71l-6 -6q-19 0 -50 1t-51 2l-4 6q33 67 72 166l6 6q56 0 171 3l8 -6q4 -13 30.5 -79.5t37.5 -89.5z" />
    <glyph glyph-name="edieresis" unicode="&#xeb;" horiz-adv-x="479" 
d="M448 222h-243q1 -48 32 -74.5t83 -26.5q65 0 113 35l7 -4q-4 -62 -6 -126l-6 -7q-57 -31 -150 -31q-64 0 -111 17q-144 53 -144 260q0 67 11 111q19 79 73.5 125.5t141.5 46.5q52 0 92 -17q36 -16 60.5 -42t36 -60t15.5 -64.5t4 -68.5q0 -2 -2 -68zM202 333h80
q0 19 -0.5 30.5t-4 28.5t-12 25.5t-21.5 8.5q-42 0 -42 -93zM417 752l4 -4q-1 -72 0 -135l-6 -5q-57 -2 -131 -6l-4 5q-1 55 -5 135l4 4q102 4 138 6zM221 752l4 -4q-1 -72 0 -135l-6 -5q-57 -2 -131 -6l-4 5q-1 55 -5 135l4 4q102 4 138 6z" />
    <glyph glyph-name="igrave" unicode="&#xec;" horiz-adv-x="271" 
d="M239 6l-5 -6q-101 1 -193 -3l-6 6q5 180 5 236q0 162 -11 273l5 6q106 15 192 34l5 -6q-2 -142 -2 -213q0 -191 10 -327zM-13 761l4 6q81 0 145 3l6 -6q7 -30 26 -89q1 -3 8 -21.5t13.5 -36t8.5 -23.5l-4 -6q-64 0 -107 -2l-6 6q-41 80 -94 169z" />
    <glyph glyph-name="iacute" unicode="&#xed;" horiz-adv-x="271" 
d="M239 6l-5 -6q-101 1 -193 -3l-6 6q5 180 5 236q0 162 -11 273l5 6q106 15 192 34l5 -6q-2 -142 -2 -213q0 -191 10 -327zM285 770l4 -6q-49 -80 -101 -170l-7 -6q-12 0 -101 -2l-3 6q41 102 57 169l7 6q55 0 144 3z" />
    <glyph glyph-name="icircumflex" unicode="&#xee;" horiz-adv-x="271" 
d="M239 6l-5 -6q-101 1 -193 -3l-6 6q5 180 5 236q0 162 -11 273l5 6q106 15 192 34l5 -6q-2 -142 -2 -213q0 -191 10 -327zM302 595l-5 -6q-63 0 -123 -4l-6 6q-1 2 -18.5 60.5t-19.5 62.5l-17 -51t-25 -71l-6 -6q-19 0 -50.5 1t-50.5 2l-4 6q33 67 72 166l6 6q55 0 171 3
l8 -6q4 -13 30.5 -79.5t37.5 -89.5z" />
    <glyph glyph-name="idieresis" unicode="&#xef;" horiz-adv-x="271" 
d="M239 6l-5 -6q-101 1 -193 -3l-6 6q5 180 5 236q0 162 -11 273l5 6q106 15 192 34l5 -6q-2 -142 -2 -213q0 -191 10 -327zM302 752l4 -4q-1 -72 0 -135l-6 -5q-57 -2 -131 -6l-4 5q-1 55 -5 135l4 4q102 4 138 6zM106 752l4 -4q-1 -72 0 -135l-6 -5q-57 -2 -131 -6l-4 5
q-1 55 -5 135l4 4q102 4 138 6z" />
    <glyph glyph-name="eth" unicode="&#xf0;" horiz-adv-x="521" 
d="M466 638l-48 -13q32 -63 47 -115q32 -107 32 -217q0 -96 -26 -167q-52 -138 -210 -138q-63 0 -109.5 20t-70 48t-37.5 69.5t-17 71.5t-3 68q0 182 91 245q45 32 101 32q30 0 54 -14q-12 43 -24 64q-3 -1 -25.5 -7t-39.5 -10q-9 -3 -26.5 -8t-26.5 -7l-10 3q-14 35 -35 80
l2 8q46 10 109 24q-17 29 -47 54l4 9q50 10 75 16q50 14 74 21l15 -5q21 -20 46 -57q37 11 45 13q7 2 19 6l11 -4q14 -32 36 -80zM302 261q0 85 -8 125q-8 42 -34 42q-17 0 -27 -18q-14 -29 -14 -138q0 -81 6 -118q8 -45 36 -45q17 0 28 18q13 25 13 134z" />
    <glyph glyph-name="ntilde" unicode="&#xf1;" horiz-adv-x="521" 
d="M43 -3l-7 6q5 118 5 214q0 156 -12 295l5 6q106 16 188 34l7 -6q-2 -30 -2 -65q34 32 64 48.5t69 16.5q37 0 62 -15q52 -30 58 -112q2 -27 2 -138v-53q0 -115 8 -222l-7 -6q-97 1 -182 -3l-5 6v112q0 173 -3 235q-4 46 -33 46q-18 0 -33 -19v-19q0 -242 7 -352l-6 -6
q-98 1 -185 -3zM408 752l6 -4q1 -15 1 -46q1 -10 1 -29.5t1 -29.5l-3 -8q-42 -38 -85 -38q-19 0 -52 12l-30 13q-40 15 -60 15q-23 0 -37 -6.5t-40 -27.5l-6 5q1 48 1 105q0 4 8 12q31 26 72 26q19 0 42 -7l39 -16q45 -15 65 -15q45 0 77 39z" />
    <glyph glyph-name="ograve" unicode="&#xf2;" horiz-adv-x="521" 
d="M266 547q153 0 206 -129q25 -61 25 -152q0 -139 -60 -208q-62 -70 -177 -70q-48 0 -86 12t-62.5 29t-42 44.5t-26 50.5t-13 54.5t-5.5 49.5t-1 43q0 140 64 209q62 67 178 67zM302 261q0 85 -8 125q-8 42 -34 42q-16 0 -27 -18q-14 -29 -14 -138q0 -81 6 -118
q7 -45 36 -45q17 0 28 18q13 25 13 134zM112 761l4 6q81 0 145 3l6 -6q7 -30 26 -89q1 -3 8 -21.5t13.5 -36t8.5 -23.5l-4 -6q-64 0 -107 -2l-6 6q-41 80 -94 169z" />
    <glyph glyph-name="oacute" unicode="&#xf3;" horiz-adv-x="521" 
d="M266 547q153 0 206 -129q25 -61 25 -152q0 -139 -60 -208q-62 -70 -177 -70q-48 0 -86 12t-62.5 29t-42 44.5t-26 50.5t-13 54.5t-5.5 49.5t-1 43q0 140 64 209q62 67 178 67zM302 261q0 85 -8 125q-8 42 -34 42q-16 0 -27 -18q-14 -29 -14 -138q0 -81 6 -118
q7 -45 36 -45q17 0 28 18q13 25 13 134zM410 770l4 -6q-50 -80 -101 -170l-7 -6q-12 0 -101 -2l-3 6q41 102 57 169l7 6q56 0 144 3z" />
    <glyph glyph-name="ocircumflex" unicode="&#xf4;" horiz-adv-x="521" 
d="M266 547q153 0 206 -129q25 -61 25 -152q0 -139 -60 -208q-62 -70 -177 -70q-48 0 -86 12t-62.5 29t-42 44.5t-26 50.5t-13 54.5t-5.5 49.5t-1 43q0 140 64 209q62 67 178 67zM302 261q0 85 -8 125q-8 42 -34 42q-16 0 -27 -18q-14 -29 -14 -138q0 -81 6 -118
q7 -45 36 -45q17 0 28 18q13 25 13 134zM427 595l-5 -6q-63 0 -123 -4l-6 6q-1 2 -18.5 60.5t-19.5 62.5l-17 -51t-25 -71l-6 -6q-19 0 -50 1t-51 2l-4 6q33 67 72 166l6 6q56 0 171 3l8 -6q4 -13 30.5 -79.5t37.5 -89.5z" />
    <glyph glyph-name="otilde" unicode="&#xf5;" horiz-adv-x="521" 
d="M266 547q153 0 206 -129q25 -61 25 -152q0 -139 -60 -208q-62 -70 -177 -70q-48 0 -86 12t-62.5 29t-42 44.5t-26 50.5t-13 54.5t-5.5 49.5t-1 43q0 140 64 209q62 67 178 67zM302 261q0 85 -8 125q-8 42 -34 42q-16 0 -27 -18q-14 -29 -14 -138q0 -81 6 -118
q7 -45 36 -45q17 0 28 18q13 25 13 134zM408 752l6 -4q1 -15 1 -46q1 -10 1 -29.5t1 -29.5l-3 -8q-42 -38 -85 -38q-19 0 -52 12l-30 13q-40 15 -60 15q-23 0 -37 -6.5t-40 -27.5l-6 5q1 48 1 105q0 4 8 12q31 26 72 26q19 0 42 -7l39 -16q45 -15 65 -15q45 0 77 39z" />
    <glyph glyph-name="odieresis" unicode="&#xf6;" horiz-adv-x="521" 
d="M266 547q153 0 206 -129q25 -61 25 -152q0 -139 -60 -208q-62 -70 -177 -70q-48 0 -86 12t-62.5 29t-42 44.5t-26 50.5t-13 54.5t-5.5 49.5t-1 43q0 140 64 209q62 67 178 67zM302 261q0 85 -8 125q-8 42 -34 42q-16 0 -27 -18q-14 -29 -14 -138q0 -81 6 -118
q7 -45 36 -45q17 0 28 18q13 25 13 134zM426 752l4 -4q-1 -72 0 -135l-6 -5q-57 -2 -131 -6l-4 5q-1 55 -5 135l4 4q102 4 138 6zM230 752l4 -4q-1 -72 0 -135l-6 -5q-57 -2 -131 -6l-4 5q-1 55 -5 135l4 4q102 4 138 6z" />
    <glyph glyph-name="divide" unicode="&#xf7;" 
d="M331 111q0 -35 -24 -58t-56 -23q-34 0 -57.5 23t-23.5 56q0 34 23.5 58t57.5 24t57 -25t23 -55zM500 354v-127h-499v127h499zM249 551q36 0 59 -24t23 -59q0 -31 -23.5 -54.5t-58.5 -23.5q-31 0 -55 23t-24 56q0 35 24 58.5t55 23.5z" />
    <glyph glyph-name="oslash" unicode="&#xf8;" horiz-adv-x="521" 
d="M491 528l1 -6q-22 -25 -45 -53q51 -64 51 -201q0 -144 -62 -213q-60 -67 -172 -67q-97 0 -158 45q-26 -31 -46 -59l-7 -1q-18 16 -41 33v7q8 9 55 63q-21 29 -32 77q-12 53 -12 120q0 134 59.5 204.5t176.5 70.5q91 0 147 -39q24 30 38 51l8 1q20 -18 39 -33zM303 285
l-83 -104q2 -42 10 -57q12 -18 31 -18q29 0 36 40q9 46 6 139zM218 270l81 101q-4 60 -38 60q-17 0 -26 -14t-13 -47q-6 -39 -4 -100z" />
    <glyph glyph-name="ugrave" unicode="&#xf9;" horiz-adv-x="521" 
d="M299 1l1 58q-67 -70 -139 -70q-33 0 -60 14q-30 15 -46 47q-12 24 -14.5 56t-2.5 143v42q1 133 -4 235l5 6q79 0 176 8l7 -6v-41q0 -33 -0.5 -99t-0.5 -98q0 -107 4 -126q4 -32 36 -32q18 0 37 17q2 176 -6 371l6 6q107 3 178 8l6 -6q-2 -140 -2 -189q0 -35 0.5 -112
t0.5 -101q1 -91 3 -127l-5 -5q-102 0 -176 -3zM112 761l4 6q81 0 145 3l6 -6q7 -30 26 -89q1 -3 8 -21.5t13.5 -36t8.5 -23.5l-4 -6q-64 0 -107 -2l-6 6q-41 80 -94 169z" />
    <glyph glyph-name="uacute" unicode="&#xfa;" horiz-adv-x="521" 
d="M299 1l1 58q-67 -70 -139 -70q-33 0 -60 14q-30 15 -46 47q-12 24 -14.5 56t-2.5 143v42q1 133 -4 235l5 6q79 0 176 8l7 -6v-41q0 -33 -0.5 -99t-0.5 -98q0 -107 4 -126q4 -32 36 -32q18 0 37 17q2 176 -6 371l6 6q107 3 178 8l6 -6q-2 -140 -2 -189q0 -35 0.5 -112
t0.5 -101q1 -91 3 -127l-5 -5q-102 0 -176 -3zM410 770l4 -6q-50 -80 -101 -170l-7 -6q-12 0 -101 -2l-3 6q41 102 57 169l7 6q56 0 144 3z" />
    <glyph glyph-name="ucircumflex" unicode="&#xfb;" horiz-adv-x="521" 
d="M299 1l1 58q-67 -70 -139 -70q-33 0 -60 14q-30 15 -46 47q-12 24 -14.5 56t-2.5 143v42q1 133 -4 235l5 6q79 0 176 8l7 -6v-41q0 -33 -0.5 -99t-0.5 -98q0 -107 4 -126q4 -32 36 -32q18 0 37 17q2 176 -6 371l6 6q107 3 178 8l6 -6q-2 -140 -2 -189q0 -35 0.5 -112
t0.5 -101q1 -91 3 -127l-5 -5q-102 0 -176 -3zM427 595l-5 -6q-63 0 -123 -4l-6 6q-1 2 -18.5 60.5t-19.5 62.5l-17 -51t-25 -71l-6 -6q-19 0 -50 1t-51 2l-4 6q33 67 72 166l6 6q56 0 171 3l8 -6q4 -13 30.5 -79.5t37.5 -89.5z" />
    <glyph glyph-name="udieresis" unicode="&#xfc;" horiz-adv-x="521" 
d="M299 1l1 58q-67 -70 -139 -70q-33 0 -60 14q-30 15 -46 47q-12 24 -14.5 56t-2.5 143v42q1 133 -4 235l5 6q79 0 176 8l7 -6v-41q0 -33 -0.5 -99t-0.5 -98q0 -107 4 -126q4 -32 36 -32q18 0 37 17q2 176 -6 371l6 6q107 3 178 8l6 -6q-2 -140 -2 -189q0 -35 0.5 -112
t0.5 -101q1 -91 3 -127l-5 -5q-102 0 -176 -3zM426 752l4 -4q-1 -72 0 -135l-6 -5q-57 -2 -131 -6l-4 5q-1 55 -5 135l4 4q102 4 138 6zM230 752l4 -4q-1 -72 0 -135l-6 -5q-57 -2 -131 -6l-4 5q-1 55 -5 135l4 4q102 4 138 6z" />
    <glyph glyph-name="yacute" unicode="&#xfd;" 
d="M113 -215l-5 6q23 53 68 183q-49 167 -122 396q-32 100 -54 157l4 6q97 1 196 7l7 -6q10 -54 34 -158l30 -138l36 144q17 69 33 148l6 6q72 -1 150 3l4 -6q-3 -9 -20 -63.5t-34.5 -111t-19.5 -62.5l-33 -102l-45 -153q-53 -190 -64 -247l-7 -6q-93 0 -164 -3zM399 770
l4 -6q-49 -80 -101 -170l-7 -6q-12 0 -101 -2l-3 6q41 102 57 169l7 6q55 0 144 3z" />
    <glyph glyph-name="thorn" unicode="&#xfe;" horiz-adv-x="521" 
d="M222 765l4 -4q-3 -109 -3 -262q67 47 115 47q76 0 121 -73q39 -65 39 -178q0 -226 -159 -282q-37 -13 -113 -15q0 -44 5 -204l-6 -6q-46 2 -70 2q-44 0 -114 -5l-6 6q0 12 0.5 37t1.5 37q1 85 1 378v241q-1 141 -7 240l4 6q85 13 187 35zM228 391q0 -140 2 -267
q44 0 62 44q14 36 14 109q0 130 -47 130q-13 0 -31 -16z" />
    <glyph glyph-name="ydieresis" unicode="&#xff;" 
d="M113 -215l-5 6q23 53 68 183q-49 167 -122 396q-32 100 -54 157l4 6q97 1 196 7l7 -6q10 -54 34 -158l30 -138l36 144q17 69 33 148l6 6q72 -1 150 3l4 -6q-3 -9 -20 -63.5t-34.5 -111t-19.5 -62.5l-33 -102l-45 -153q-53 -190 -64 -247l-7 -6q-93 0 -164 -3zM416 752
l4 -4q-1 -72 0 -135l-6 -5q-57 -2 -131 -6l-4 5q-1 55 -5 135l4 4q102 4 138 6zM220 752l4 -4q-1 -72 0 -135l-6 -5q-57 -2 -131 -6l-4 5q-1 55 -5 135l4 4q102 4 138 6z" />
    <glyph glyph-name="dotlessi" unicode="&#x131;" horiz-adv-x="271" 
d="M239 6l-5 -6q-101 1 -193 -3l-6 6q5 180 5 236q0 162 -11 273l5 6q106 15 192 34l5 -6q-2 -142 -2 -213q0 -191 10 -327z" />
    <glyph glyph-name="Lslash" unicode="&#x141;" horiz-adv-x="458" 
d="M370 420l-6 -7q-24 -15 -63.5 -39.5t-53.5 -33.5q-1 -86 0 -190q94 0 190 6l5 -6q-5 -74 -8 -144l-5 -6l-279 -1q-17 0 -101 -2l-6 6q1 91 1 212q-10 -5 -34 -21l-9 5q0 51 -1 93l5 7q21 12 39 23q0 36 -0.5 132t-0.5 133q0 33 -2 113l5 6q124 0 199 3l5 -6
q0 -6 -0.5 -19.5t-0.5 -20.5q-1 -16 -1.5 -107.5t-0.5 -108.5q73 46 117 76l8 -5q-3 -57 -2 -98z" />
    <glyph glyph-name="lslash" unicode="&#x142;" horiz-adv-x="271" 
d="M238 6l-6 -6q-104 1 -190 -3l-5 6q5 150 5 313q-28 -19 -34 -23l-8 6q3 38 3 86l5 8q23 13 34 20q-1 215 -9 311l5 6q71 12 188 35l6 -6q-2 -136 -1 -228q11 6 33 21l7 -5q-5 -55 -5 -88l-5 -9l-30 -18q0 -182 1 -216q1 -75 6 -210z" />
    <glyph glyph-name="OE" unicode="&#x152;" horiz-adv-x="812" 
d="M616 294l-41 -1q-1 -56 -1 -143h47q109 0 168 4l6 -6q-6 -72 -9 -142l-6 -6q-99 1 -200 0l-129 -2q-32 -2 -113 -2q-87 0 -141 23q-46 19 -79.5 54t-50 69.5t-26 78.5t-11 69t-1.5 53q0 186 82 279q23 26 51 43.5t58 26.5t66 13t75.5 4h85.5l110 -2h100q8 0 59 1t61 1
l6 -6q-2 -25 -7 -134l-5 -6q-33 1 -155 1h-42v-132h42q11 0 68.5 0.5t75.5 0.5l5 -6q-6 -67 -9 -128l-6 -6q-6 0 -43 0.5t-44 0.5h-47zM379 152q1 110 0 203q-2 108 -2 208q-13 2 -23 2q-83 0 -104 -119q-8 -45 -8 -106q0 -191 110 -191q12 0 27 3z" />
    <glyph glyph-name="oe" unicode="&#x153;" horiz-adv-x="792" 
d="M758 222h-254q1 -35 17 -57.5t40.5 -30.5t38 -10t27.5 -2q71 0 116 35l6 -4l-6 -122l-6 -9q-64 -34 -149 -34q-46 0 -81 11.5t-47.5 21.5t-30.5 28q-20 -17 -34.5 -27.5t-51 -22t-82.5 -11.5q-57 0 -96 15q-141 51 -141 261q0 152 67 221q59 63 168 63q58 0 95 -16
t68 -47q62 62 147 62q47 0 85 -17q63 -29 88 -89t25 -152q0 -21 -2 -61zM500 332h91q-1 26 -2.5 42t-12 34t-29.5 18q-44 0 -47 -94zM313 247q0 100 -7 135q-8 42 -34 42q-27 0 -35 -42q-7 -39 -7 -118q0 -63 6 -105q8 -45 36 -45q12 0 22 10q19 21 19 123z" />
    <glyph glyph-name="Scaron" unicode="&#x160;" horiz-adv-x="479" 
d="M418 537l-8 -3q-18 14 -29.5 22t-34.5 16t-49 8q-30 0 -50 -15.5t-20 -41.5q0 -24 17.5 -43.5t56.5 -45.5q45 -31 64.5 -46.5t44 -42t33.5 -56.5t9 -70q0 -95 -56 -158q-68 -75 -204 -75q-90 0 -153 31l-6 9q4 52 5 78q0 11 1 33t1 33l7 3q53 -45 123 -45q33 0 52.5 15
t23.5 28.5t4 25.5q0 24 -15.5 41t-51.5 43l-41 28q-25 18 -38.5 30t-34 36t-30 56.5t-9.5 73.5q0 99 59 158q59 58 176 58q87 0 157 -33l4 -7q-4 -50 -5 -75zM213 913l6 -6q13 -33 35 -86q20 41 42 84l8 6q46 -2 111 -3l3 -5q-52 -96 -71 -146l-7 -6q-120 -1 -179 -3l-6 6
q-36 81 -73 147l3 6q54 2 128 6z" />
    <glyph glyph-name="scaron" unicode="&#x161;" horiz-adv-x="396" 
d="M28 13l-5 9q1 12 1 35t1 34v52l9 4q49 -41 97 -41q15 0 28 4q30 10 30 36q0 11 -7 21t-14.5 15.5t-23.5 15.5q-33 21 -49 33t-36.5 33.5t-29 48t-8.5 60.5q0 90 59 135q50 40 149 40q63 0 121 -18l5 -7q-2 -42 -2 -63v-60l-8 -2q-42 36 -87 36q-27 0 -41 -11.5t-14 -27.5
t12 -28t54 -38q26 -17 39 -27t31.5 -30t27 -45.5t8.5 -58.5q0 -36 -11 -65q-14 -38 -44 -65q-53 -50 -153 -50q-81 0 -139 25zM44 759l4 6q63 0 123 4l6 -6q10 -25 38 -123q26 74 42 122l7 6q18 0 49 -1t52 -2l3 -6q-28 -57 -71 -166l-7 -6q-100 -1 -171 -3l-7 6
q-52 134 -68 169z" />
    <glyph glyph-name="Ydieresis" unicode="&#x178;" horiz-adv-x="583" 
d="M461 439l-69 -164v-109q0 -102 3 -160l-5 -6q-93 1 -202 -3l-5 6q6 88 6 266l-77 172l-36 84q-51 122 -75 173l3 6q99 1 201 8l7 -6q2 -5 5.5 -15t5.5 -15q2 -4 12 -32.5t19 -54.5t12 -34l44 -112l35 89q38 99 62 168l6 6q61 0 167 3l4 -6q-28 -54 -123 -264zM465 902
l4 -4q-1 -72 0 -135l-6 -5q-57 -2 -131 -6l-4 5q-1 55 -5 135l4 4q102 4 138 6zM255 902l4 -4q-1 -72 0 -135l-6 -5q-53 -2 -131 -6l-4 5q-1 55 -5 135l4 4q102 4 138 6z" />
    <glyph glyph-name="Zcaron" unicode="&#x17d;" 
d="M372 403l-103 -256q89 0 213 7l4 -6q-6 -78 -8 -142l-6 -6h-328q-48 0 -137 -3l-4 6q55 129 100 241l65 157q41 99 62 159q-66 0 -198 -4l-5 5q6 103 8 139l5 6h168h100q97 0 182 3l3 -6q-6 -17 -20 -51q-17 -42 -101 -249zM213 913l6 -6q13 -33 35 -86q20 41 42 84l8 6
q46 -2 111 -3l3 -5q-52 -96 -71 -146l-7 -6q-120 -1 -179 -3l-6 6q-36 81 -73 147l3 6q54 2 128 6z" />
    <glyph glyph-name="zcaron" unicode="&#x17e;" horiz-adv-x="417" 
d="M315 317l-75 -189q17 0 31.5 0.5t21.5 1t11 0.5q50 0 89 4l5 -6q-3 -72 -4 -122l-6 -6q-45 1 -144 1l-116 -2q-44 0 -128 -2l-5 6q2 4 56 127l113 275q-46 1 -139 -1l-5 6q3 89 4 120l6 6q81 -1 131 0h97q28 0 147 3l4 -6q-29 -62 -94 -216zM45 759l4 6q63 0 123 4l6 -6
q10 -25 38 -123q26 74 42 122l7 6q18 0 49 -1t52 -2l3 -6q-28 -57 -71 -166l-7 -6q-100 -1 -171 -3l-7 6q-52 134 -68 169z" />
    <glyph glyph-name="florin" unicode="&#x192;" horiz-adv-x="479" 
d="M376 307l-7 -6q-37 1 -63 0l-16 -155q-13 -122 -19 -163q-12 -87 -58 -124q-47 -37 -124 -37q-45 0 -96 16l-3 7l9 57q2 9 3.5 19.5t3 22.5t2.5 19l9 5q23 -7 38 -7q31 0 42 39q3 12 18 146l16 157q-30 0 -60 -2l-6 6q2 21 5 47t5 47l7 6q28 -1 61 -1l6 42q10 68 14.5 90
t15.5 41q42 80 157 80q43 0 97 -16l3 -8l-9 -57q-1 -10 -4 -31t-5 -31l-9 -4q-24 6 -39 6q-31 0 -41 -36q-3 -14 -11 -76q33 0 63 1l5 -7q-7 -45 -10 -93z" />
    <glyph glyph-name="circumflex" unicode="&#x2c6;" horiz-adv-x="250" 
d="M288 595l-5 -6q-63 0 -123 -4l-6 6q-1 2 -18.5 60.5t-19.5 62.5l-17 -51t-25 -71l-6 -6q-19 0 -50.5 1t-50.5 2l-4 6q33 67 72 166l6 6q55 0 171 3l8 -6q4 -13 30.5 -79.5t37.5 -89.5z" />
    <glyph glyph-name="caron" unicode="&#x2c7;" horiz-adv-x="250" 
d="M-37 759l4 6q63 0 123 4l6 -6q10 -25 38 -123q26 74 42 122l7 6q18 0 49 -1t52 -2l3 -6q-28 -57 -71 -166l-7 -6q-100 -1 -171 -3l-7 6q-52 134 -68 169z" />
    <glyph glyph-name="breve" unicode="&#x2d8;" horiz-adv-x="250" 
d="M282 757l5 -6q-6 -56 -28 -91q-46 -71 -143 -71q-90 0 -129 62q-20 31 -23 94l5 6q50 2 95 8l6 -6q5 -60 57 -60q51 0 57 53l5 6q68 3 93 5z" />
    <glyph glyph-name="dotaccent" unicode="&#x2d9;" horiz-adv-x="250" 
d="M194 752l4 -4q-1 -72 0 -135l-6 -5q-55 -2 -131 -6l-4 5q-1 55 -5 135l4 4q102 4 138 6z" />
    <glyph glyph-name="ring" unicode="&#x2da;" horiz-adv-x="250" 
d="M125 800q53 0 86.5 -29t33.5 -86q0 -54 -31.5 -84t-88.5 -30q-59 0 -89.5 30.5t-30.5 79.5q0 54 32 86.5t88 32.5zM162 686q0 61 -37 61t-37 -61q0 -27 9.5 -44t27.5 -17t27.5 17t9.5 44z" />
    <glyph glyph-name="ogonek" unicode="&#x2db;" horiz-adv-x="250" 
d="M102 4h85q-45 -35 -45 -71q0 -19 11.5 -29.5t28.5 -10.5q12 0 32 9l6 -6q-5 -30 -10 -78l-6 -7q-36 -9 -61 -9q-59 0 -86 28.5t-27 65.5q0 57 72 108z" />
    <glyph glyph-name="tilde" unicode="&#x2dc;" horiz-adv-x="250" 
d="M273 752l6 -4q1 -15 1 -46q0 -10 1 -29.5t1 -29.5l-3 -8q-42 -38 -85 -38q-19 0 -52 12l-30 13q-40 15 -60 15q-23 0 -37 -6.5t-40 -27.5l-6 5q1 48 1 105q0 4 8 12q31 26 72 26q19 0 42 -7l39 -16q45 -15 65 -15q46 0 77 39z" />
    <glyph glyph-name="hungarumlaut" unicode="&#x2dd;" horiz-adv-x="250" 
d="M137 770l3 -6q-41 -74 -97 -170l-7 -6q-11 0 -97 -2l-3 6q39 97 55 169l7 6q54 0 139 3zM311 770l3 -6q-70 -123 -98 -170l-6 -6q-4 0 -97 -2l-4 6q36 86 56 169l6 6q53 0 140 3z" />
    <glyph glyph-name="endash" unicode="&#x2013;" 
d="M465 357l6 -5q-5 -116 -6 -137l-7 -6q-34 1 -102 1h-194q-40 0 -79 -0.5t-48 -0.5l-5 6q3 86 5 136l6 6q21 0 150 -0.5t154 -0.5q37 0 74.5 0.5t45.5 0.5z" />
    <glyph glyph-name="emdash" unicode="&#x2014;" horiz-adv-x="625" 
d="M590 358l6 -6q-5 -116 -6 -137l-7 -6q-40 1 -119 1h-289q-42 0 -85.5 -0.5t-54.5 -0.5l-5 6q3 86 5 136l6 6q28 0 201.5 -0.5t206.5 -0.5q85 0 141 2z" />
    <glyph glyph-name="quoteleft" unicode="&#x2018;" horiz-adv-x="250" 
d="M4 463l-4 5q32 68 57 130q33 85 47 117l5 11l8 6q71 1 117 4l3 -6q-46 -144 -60 -255l-6 -6q-81 -1 -167 -6z" />
    <glyph glyph-name="quoteright" unicode="&#x2019;" horiz-adv-x="250" 
d="M246 736l4 -6q-30 -64 -57 -129q-27 -73 -47 -118l-5 -10l-8 -6q-26 0 -117 -4l-4 6q16 46 35.5 127t25.5 128l6 5q85 1 167 7z" />
    <glyph glyph-name="quotesinglbase" unicode="&#x201a;" horiz-adv-x="250" 
d="M228 173l4 -6q-33 -69 -56 -129q-5 -13 -14.5 -37t-17.5 -43.5t-16 -36.5l-4 -11l-8 -6q-72 -1 -117 -4l-4 6q15 48 34.5 128.5t25.5 126.5l6 6q81 1 167 6z" />
    <glyph glyph-name="quotedblleft" unicode="&#x201c;" horiz-adv-x="458" 
d="M4 463l-4 5q32 68 57 130q33 85 47 117l5 11l8 6q71 1 117 4l4 -6q-16 -47 -35.5 -128t-25.5 -127l-6 -6q-81 -1 -167 -6zM213 463l-4 5q34 73 56 130q5 13 14.5 37t17.5 43.5t16 36.5l5 11l7 6q72 1 117 4l4 -6q-46 -144 -60 -255l-6 -6q-81 -1 -167 -6z" />
    <glyph glyph-name="quotedblright" unicode="&#x201d;" horiz-adv-x="458" 
d="M246 736l3 -6q-47 -108 -56 -129q-38 -96 -48 -118l-4 -10l-8 -6q-25 0 -117 -4l-4 6q15 47 35 127.5t26 127.5l6 5q83 1 167 7zM454 736l4 -6q-33 -72 -56 -129q-38 -96 -48 -118l-4 -10l-8 -6q-28 -1 -117 -4l-4 6q16 48 35 128.5t25 126.5l6 5q85 1 167 7z" />
    <glyph glyph-name="quotedblbase" unicode="&#x201e;" horiz-adv-x="458" 
d="M228 173l4 -6q-33 -69 -56 -129q-5 -13 -14.5 -37t-17.5 -43.5t-16 -36.5l-4 -11l-8 -6q-72 -1 -117 -4l-4 6q15 48 34.5 128.5t25.5 126.5l6 6q81 1 167 6zM437 173l4 -6q-30 -63 -57 -129q-33 -85 -47 -117l-5 -11l-8 -6q-71 -1 -117 -4l-3 6q16 48 35 128.5t25 126.5
l6 6q81 1 167 6z" />
    <glyph glyph-name="dagger" unicode="&#x2020;" 
d="M470 369l-7 -5h-125q-1 -47 -1 -141q0 -145 5 -353v-23l-8 -6q-82 1 -169 1l-7 6q3 73 3 219q0 192 2 298q-67 1 -130 0l-7 5q0 14 4 126l7 6q93 -3 127 -2q1 23 1 87q0 81 -3 141l7 6q87 0 165 2l7 -6q-4 -86 -4 -231q77 0 129 1l7 -6q0 -11 -1 -46t-2 -79z" />
    <glyph glyph-name="daggerdbl" unicode="&#x2021;" 
d="M471 416l-6 -6q-14 0 -64 0.5t-61 0.5q-2 -149 -1 -213q7 0 63 0.5t67 0.5l6 -6l-4 -124l-7 -6q-18 0 -63 0.5t-62 0.5q-1 -78 5 -217l-7 -6q-91 2 -168 1l-8 6q7 107 6 216h-135l-7 5q4 117 4 126l7 6q97 -4 132 -2q0 113 -1 213q-78 1 -135 0l-7 5q1 24 2 61t2 65l7 6
q54 -2 132 -2q0 105 -2 181l7 6q66 -1 164 2l6 -6q-5 -90 -5 -184q41 -1 130 1l7 -6q-2 -32 -4 -125z" />
    <glyph glyph-name="bullet" unicode="&#x2022;" horiz-adv-x="333" 
d="M322 353q0 -61 -39.5 -108.5t-113.5 -47.5q-71 0 -114 48t-43 107q0 64 46 110t111 46q64 0 108.5 -44t44.5 -111z" />
    <glyph glyph-name="ellipsis" unicode="&#x2026;" horiz-adv-x="1000" 
d="M253 6l-6 -6q-88 0 -159 -3l-6 6q0 80 -2 159l5 6q88 0 160 3l6 -6q0 -78 2 -159zM586 6l-6 -6q-88 0 -159 -3l-6 6q0 80 -2 159l5 6q88 0 160 3l6 -6q0 -78 2 -159zM919 6l-6 -6q-88 0 -159 -3l-6 6q0 80 -2 159l5 6q88 0 160 3l6 -6q0 -78 2 -159z" />
    <glyph glyph-name="perthousand" unicode="&#x2030;" horiz-adv-x="1188" 
d="M330 427q0 -34 -1.5 -57t-9.5 -59t-23.5 -58t-45.5 -39t-73 -17q-31 0 -56 9.5t-41 23t-27 35.5t-16.5 40t-8.5 45t-3.5 41t-0.5 36q0 32 1 54t9.5 58.5t23.5 59t46 40t74 17.5q36 0 63 -11t43 -32t26 -41.5t14 -51t5 -49t1 -44.5zM203 423q0 69 -4 106q-5 34 -22 34
t-22 -35q-4 -25 -4 -104q0 -100 9 -121q9 -13 17 -13q13 0 16 14q10 24 10 119zM810 221q0 -33 -1.5 -57t-10 -59.5t-23.5 -57.5t-45.5 -39t-73.5 -17q-31 0 -56 9.5t-41 23t-27 35.5t-16.5 40t-8.5 44.5t-3.5 41t-0.5 36.5q0 32 1 54t9.5 58.5t23.5 59t46 40t74 17.5
t73.5 -17.5t45.5 -40t23 -58.5t9.5 -58.5t1.5 -54.5zM683 217q0 71 -5 106q-5 34 -22 34t-22 -35q-4 -25 -4 -104q0 -100 10 -121q4 -13 16 -13q10 0 17 14q10 24 10 119zM1164 221q0 -33 -1.5 -57t-10 -59.5t-23.5 -57.5t-45.5 -39t-73.5 -17q-31 0 -56 9.5t-41 23
t-27 35.5t-16.5 40t-8.5 44.5t-3.5 41t-0.5 36.5q0 32 1 54t9.5 58.5t23.5 59t46 40t74 17.5t73.5 -17.5t45.5 -40t23 -58.5t9.5 -58.5t1.5 -54.5zM1037 217q0 71 -5 106q-5 34 -22 34t-22 -35q-4 -25 -4 -104q0 -100 10 -121q4 -13 16 -13q10 0 17 14q10 24 10 119z
M487 369l-43 -109q-70 -180 -97 -255l-14 -5q-58 -2 -96 -3l-4 6l9 23q12 27 41.5 98.5t41.5 98.5q5 12 15 38t15 38l35 86q43 108 98 259l7 6q48 -1 101 0l4 -6q-29 -65 -113 -275z" />
    <glyph glyph-name="guilsinglleft" unicode="&#x2039;" horiz-adv-x="271" 
d="M255 80l-5 -8q-67 0 -133 -1l-8 5q-28 67 -34 84q-7 18 -22 54t-22 54l-8 16l-1 11q1 3 3.5 7t3.5 7q7 15 42 98t38 90l8 5h61q52 0 78 1l5 -8q-33 -65 -91 -208q20 -57 48 -120q3 -7 37 -87z" />
    <glyph glyph-name="guilsinglright" unicode="&#x203a;" horiz-adv-x="271" 
d="M16 494l5 8q67 0 133 1l8 -5q2 -6 17 -41.5t17 -42.5q5 -12 20 -49.5t24 -58.5l8 -16l1 -11q-4 -7 -7 -14q-7 -15 -42 -98t-38 -90l-8 -5h-61q-52 0 -78 -1l-5 8q29 56 90 208q-16 49 -47 121q0 1 -17 39.5t-20 46.5z" />
    <glyph glyph-name="fraction" unicode="&#x2044;" horiz-adv-x="125" 
d="M133 370l-42 -110q-60 -149 -98 -255l-13 -5q-58 -2 -97 -3l-4 6l10 24q11 28 41 98.5t41 98.5l66 162q56 144 97 258l7 6h101l4 -6q-6 -13 -113 -274z" />
    <glyph glyph-name="fraction" unicode="&#x2215;" horiz-adv-x="125" 
d="M133 370l-42 -110q-60 -149 -98 -255l-13 -5q-58 -2 -97 -3l-4 6l10 24q11 28 41 98.5t41 98.5l66 162q56 144 97 258l7 6h101l4 -6q-6 -13 -113 -274z" />
    <glyph glyph-name="Euro" unicode="&#x20ac;" 
d="M458 629v-130q-31 36 -102 36q-93 0 -109 -106h183l-28 -84h-163v-23q0 -20 1 -28h144l-28 -83h-107q15 -99 108 -99q67 0 101 32v-128q-40 -27 -133 -27q-207 0 -239 222h-72l28 83h36q-1 8 -1 27q0 16 1 24h-64l28 84h42q35 230 241 230q91 0 133 -30z" />
    <glyph glyph-name="trademark" unicode="&#x2122;" horiz-adv-x="688" 
d="M674 706v-332h-82l4 177l5 67l-13 -53l-57 -191h-74l-59 192l-14 51l6 -66l5 -177h-81v332h106l76 -240l71 240h107zM187 639v-265h-84v265h-102v67h286v-67h-100z" />
    <glyph glyph-name="minus" unicode="&#x2212;" 
d="M500 354v-127h-500v127h500z" />
    <glyph glyph-name="fi" unicode="&#xfb01;" horiz-adv-x="583" 
d="M305 409l-6 -6q-26 1 -55 1q0 -254 8 -398l-7 -5q-110 0 -187 -3l-6 5q5 114 5 403q-9 0 -21 -0.5t-24 -1.5l-6 6q1 23 2 39t2 37t2 43l6 6l39 -3v12q0 32 0.5 48t4 43.5t10 42.5t19.5 34.5t32 29t48 16.5t67 7q36 0 84 -8l4 -6q-5 -64 -7 -128l-7 -5q-12 7 -23 7
q-46 0 -46 -71v-23q23 0 63 3l5 -6q-3 -55 -6 -119zM552 6l-5 -6q-101 1 -193 -3l-6 6q5 180 5 236q0 162 -11 273l5 6q106 15 192 33l5 -6q-2 -140 -2 -212q0 -191 10 -327zM531 608l-5 -6q-64 -8 -166 -25l-6 5q0 79 -3 142l5 6q86 9 170 22l6 -6q-1 -63 -1 -138z" />
    <glyph glyph-name="fl" unicode="&#xfb02;" horiz-adv-x="583" 
d="M305 409l-7 -6q-26 1 -54 1q0 -254 8 -398l-7 -5q-110 0 -187 -3l-6 5q5 114 5 403q-9 0 -21 -0.5t-24 -1.5l-6 6q1 23 2 39t2 37t2 43l6 6q4 0 9.5 -0.5t7.5 -0.5q6 -1 22 -1v42q0 31 2 50.5t11.5 49t27 47t52 30.5t83.5 13q38 0 81 -8l4 -6q-5 -63 -7 -127l-7 -6
q-10 7 -22 7q-39 0 -39 -71v-23q23 0 62 3l6 -6q-3 -55 -6 -119zM550 6l-5 -6q-104 1 -191 -3l-5 6q5 135 5 297q0 303 -9 424l5 6q109 19 188 35l6 -6q-1 -61 -1 -161q0 -417 7 -592z" />
    </font>
</defs>
</svg>
